%TF.GenerationSoftware,KiCad,Pcbnew,10.0.3*%
%TF.CreationDate,2026-07-01T15:59:17+02:00*%
%TF.ProjectId,Micro_drone,4d696372-6f5f-4647-926f-6e652e6b6963,rev?*%
%TF.SameCoordinates,Original*%
%TF.FileFunction,Soldermask,Bot*%
%TF.FilePolarity,Negative*%
%FSLAX46Y46*%
G04 Gerber Fmt 4.6, Leading zero omitted, Abs format (unit mm)*
G04 Created by KiCad (PCBNEW 10.0.3) date 2026-07-01 15:59:17*
%MOMM*%
%LPD*%
G01*
G04 APERTURE LIST*
G04 Aperture macros list*
%AMRoundRect*
0 Rectangle with rounded corners*
0 $1 Rounding radius*
0 $2 $3 $4 $5 $6 $7 $8 $9 X,Y pos of 4 corners*
0 Add a 4 corners polygon primitive as box body*
4,1,4,$2,$3,$4,$5,$6,$7,$8,$9,$2,$3,0*
0 Add four circle primitives for the rounded corners*
1,1,$1+$1,$2,$3*
1,1,$1+$1,$4,$5*
1,1,$1+$1,$6,$7*
1,1,$1+$1,$8,$9*
0 Add four rect primitives between the rounded corners*
20,1,$1+$1,$2,$3,$4,$5,0*
20,1,$1+$1,$4,$5,$6,$7,0*
20,1,$1+$1,$6,$7,$8,$9,0*
20,1,$1+$1,$8,$9,$2,$3,0*%
G04 Aperture macros list end*
%ADD10RoundRect,0.249999X0.850001X-0.850001X0.850001X0.850001X-0.850001X0.850001X-0.850001X-0.850001X0*%
%ADD11C,2.200000*%
%ADD12C,1.600000*%
%ADD13RoundRect,0.249999X-0.850001X0.850001X-0.850001X-0.850001X0.850001X-0.850001X0.850001X0.850001X0*%
%ADD14RoundRect,0.250000X-0.550000X0.550000X-0.550000X-0.550000X0.550000X-0.550000X0.550000X0.550000X0*%
%ADD15C,1.400000*%
%ADD16R,1.700000X1.700000*%
%ADD17C,1.700000*%
G04 APERTURE END LIST*
D10*
%TO.C,D3*%
X176500000Y-117160000D03*
D11*
X176500000Y-107000000D03*
%TD*%
D12*
%TO.C,R2*%
X110000000Y-117500000D03*
X110000000Y-107340000D03*
%TD*%
%TO.C,R3*%
X166500000Y-117160000D03*
X166500000Y-107000000D03*
%TD*%
D13*
%TO.C,D2*%
X98500000Y-107000000D03*
D11*
X98500000Y-117160000D03*
%TD*%
D14*
%TO.C,470uf-batterie1*%
X130500000Y-65000000D03*
D12*
X130500000Y-68500000D03*
%TD*%
D13*
%TO.C,D1*%
X98000000Y-76680000D03*
D11*
X98000000Y-86840000D03*
%TD*%
D12*
%TO.C,100nf-esp1*%
X146500000Y-71000000D03*
X151500000Y-71000000D03*
%TD*%
%TO.C,100nf-imu1*%
X149000000Y-109000000D03*
X149000000Y-114000000D03*
%TD*%
D15*
%TO.C,U1*%
X124030000Y-103970000D03*
X124030000Y-101430000D03*
X126570000Y-103970000D03*
X126570000Y-101430000D03*
X129110000Y-103970000D03*
X129110000Y-101430000D03*
X131650000Y-103970000D03*
X131650000Y-101430000D03*
X134190000Y-103970000D03*
X134190000Y-101430000D03*
X136730000Y-103970000D03*
X136730000Y-101430000D03*
X139270000Y-103970000D03*
X139270000Y-101430000D03*
X141810000Y-103970000D03*
X141810000Y-101430000D03*
X144350000Y-103970000D03*
X144350000Y-101430000D03*
X146890000Y-103970000D03*
X146890000Y-101430000D03*
X124030000Y-78570000D03*
X124030000Y-76030000D03*
X126570000Y-78570000D03*
X126570000Y-76030000D03*
X129110000Y-78570000D03*
X129110000Y-76030000D03*
X131650000Y-78570000D03*
X131650000Y-76030000D03*
X134190000Y-78570000D03*
X134190000Y-76030000D03*
X136730000Y-78570000D03*
X136730000Y-76030000D03*
X139270000Y-78570000D03*
X139270000Y-76030000D03*
X141810000Y-78570000D03*
X141810000Y-76030000D03*
X144350000Y-78570000D03*
X144350000Y-76030000D03*
X146890000Y-78570000D03*
X146890000Y-76030000D03*
%TD*%
D16*
%TO.C,J3*%
X140500000Y-108420000D03*
D17*
X140500000Y-110960000D03*
X140500000Y-113500000D03*
X140500000Y-116040000D03*
%TD*%
D12*
%TO.C,R4*%
X166500000Y-86500000D03*
X166500000Y-76340000D03*
%TD*%
D16*
%TO.C,J1*%
X140500000Y-65960000D03*
D17*
X140500000Y-68500000D03*
%TD*%
D12*
%TO.C,R1*%
X109500000Y-76840000D03*
X109500000Y-87000000D03*
%TD*%
%TO.C,100nf-alti1*%
X127000000Y-109000000D03*
X132000000Y-109000000D03*
%TD*%
D10*
%TO.C,D4*%
X178500000Y-86000000D03*
D11*
X178500000Y-75840000D03*
%TD*%
D16*
%TO.C,J2*%
X122300000Y-114000000D03*
D17*
X124840000Y-114000000D03*
X127380000Y-114000000D03*
X129920000Y-114000000D03*
X132460000Y-114000000D03*
X135000000Y-114000000D03*
%TD*%
M02*
