%TF.GenerationSoftware,KiCad,Pcbnew,10.0.3*%
%TF.CreationDate,2026-07-01T15:59:17+02:00*%
%TF.ProjectId,Micro_drone,4d696372-6f5f-4647-926f-6e652e6b6963,rev?*%
%TF.SameCoordinates,Original*%
%TF.FileFunction,Copper,L2,Bot*%
%TF.FilePolarity,Positive*%
%FSLAX46Y46*%
G04 Gerber Fmt 4.6, Leading zero omitted, Abs format (unit mm)*
G04 Created by KiCad (PCBNEW 10.0.3) date 2026-07-01 15:59:17*
%MOMM*%
%LPD*%
G01*
G04 APERTURE LIST*
G04 Aperture macros list*
%AMRoundRect*
0 Rectangle with rounded corners*
0 $1 Rounding radius*
0 $2 $3 $4 $5 $6 $7 $8 $9 X,Y pos of 4 corners*
0 Add a 4 corners polygon primitive as box body*
4,1,4,$2,$3,$4,$5,$6,$7,$8,$9,$2,$3,0*
0 Add four circle primitives for the rounded corners*
1,1,$1+$1,$2,$3*
1,1,$1+$1,$4,$5*
1,1,$1+$1,$6,$7*
1,1,$1+$1,$8,$9*
0 Add four rect primitives between the rounded corners*
20,1,$1+$1,$2,$3,$4,$5,0*
20,1,$1+$1,$4,$5,$6,$7,0*
20,1,$1+$1,$6,$7,$8,$9,0*
20,1,$1+$1,$8,$9,$2,$3,0*%
G04 Aperture macros list end*
%TA.AperFunction,ComponentPad*%
%ADD10RoundRect,0.249999X0.850001X-0.850001X0.850001X0.850001X-0.850001X0.850001X-0.850001X-0.850001X0*%
%TD*%
%TA.AperFunction,ComponentPad*%
%ADD11C,2.200000*%
%TD*%
%TA.AperFunction,ComponentPad*%
%ADD12C,1.600000*%
%TD*%
%TA.AperFunction,ComponentPad*%
%ADD13RoundRect,0.249999X-0.850001X0.850001X-0.850001X-0.850001X0.850001X-0.850001X0.850001X0.850001X0*%
%TD*%
%TA.AperFunction,ComponentPad*%
%ADD14RoundRect,0.250000X-0.550000X0.550000X-0.550000X-0.550000X0.550000X-0.550000X0.550000X0.550000X0*%
%TD*%
%TA.AperFunction,ComponentPad*%
%ADD15C,1.400000*%
%TD*%
%TA.AperFunction,ComponentPad*%
%ADD16R,1.700000X1.700000*%
%TD*%
%TA.AperFunction,ComponentPad*%
%ADD17C,1.700000*%
%TD*%
%TA.AperFunction,ViaPad*%
%ADD18C,0.600000*%
%TD*%
%TA.AperFunction,Conductor*%
%ADD19C,0.200000*%
%TD*%
%TA.AperFunction,Conductor*%
%ADD20C,0.600000*%
%TD*%
%TA.AperFunction,Conductor*%
%ADD21C,0.300000*%
%TD*%
G04 APERTURE END LIST*
D10*
%TO.P,D3,1,K_1*%
%TO.N,Net-(D1-K)*%
X176500000Y-117160000D03*
D11*
%TO.P,D3,2,A_2*%
%TO.N,Net-(D3-A)*%
X176500000Y-107000000D03*
%TD*%
D12*
%TO.P,R2,1*%
%TO.N,GND*%
X110000000Y-117500000D03*
%TO.P,R2,2*%
%TO.N,Net-(Q2-G)*%
X110000000Y-107340000D03*
%TD*%
%TO.P,R3,1*%
%TO.N,GND*%
X166500000Y-117160000D03*
%TO.P,R3,2*%
%TO.N,Net-(Q3-G)*%
X166500000Y-107000000D03*
%TD*%
D13*
%TO.P,D2,1,K_1*%
%TO.N,Net-(D1-K)*%
X98500000Y-107000000D03*
D11*
%TO.P,D2,2,A_2*%
%TO.N,Net-(D2-A)*%
X98500000Y-117160000D03*
%TD*%
D14*
%TO.P,470uf-batterie1,1*%
%TO.N,Net-(D1-K)*%
X130500000Y-65000000D03*
D12*
%TO.P,470uf-batterie1,2*%
%TO.N,GND*%
X130500000Y-68500000D03*
%TD*%
D13*
%TO.P,D1,1,K_1*%
%TO.N,Net-(D1-K)*%
X98000000Y-76680000D03*
D11*
%TO.P,D1,2,A_2*%
%TO.N,Net-(D1-A)*%
X98000000Y-86840000D03*
%TD*%
D12*
%TO.P,100nf-esp1,1*%
%TO.N,Net-(D1-K)*%
X146500000Y-71000000D03*
%TO.P,100nf-esp1,2*%
%TO.N,GND*%
X151500000Y-71000000D03*
%TD*%
%TO.P,100nf-imu1,1*%
%TO.N,+3.3V*%
X149000000Y-109000000D03*
%TO.P,100nf-imu1,2*%
%TO.N,GND*%
X149000000Y-114000000D03*
%TD*%
D15*
%TO.P,U1,1,GND_1*%
%TO.N,GND*%
X124030000Y-103970000D03*
%TO.P,U1,2,RST_2*%
%TO.N,unconnected-(U1-RST-Pad2)*%
X124030000Y-101430000D03*
%TO.P,U1,3,NC_3*%
%TO.N,unconnected-(U1-NC-Pad3)*%
X126570000Y-103970000D03*
%TO.P,U1,4,IO_36/SVP/A0_4*%
%TO.N,unconnected-(U1-IO_36{slash}SVP{slash}A0-Pad4)*%
X126570000Y-101430000D03*
%TO.P,U1,5,IO_39/SVN_5*%
%TO.N,unconnected-(U1-IO_39{slash}SVN-Pad5)*%
X129110000Y-103970000D03*
%TO.P,U1,6,IO_26/D0_6*%
%TO.N,Net-(Q2-G)*%
X129110000Y-101430000D03*
%TO.P,U1,7,IO_35_7*%
%TO.N,unconnected-(U1-IO_35-Pad7)*%
X131650000Y-103970000D03*
%TO.P,U1,8,IO_18/D5_8*%
%TO.N,unconnected-(U1-IO_18{slash}D5-Pad8)*%
X131650000Y-101430000D03*
%TO.P,U1,9,IO_33_9*%
%TO.N,unconnected-(U1-IO_33-Pad9)*%
X134190000Y-103970000D03*
%TO.P,U1,10,IO_19/D6_10*%
%TO.N,unconnected-(U1-IO_19{slash}D6-Pad10)*%
X134190000Y-101430000D03*
%TO.P,U1,11,IO_34_11*%
%TO.N,unconnected-(U1-IO_34-Pad11)*%
X136730000Y-103970000D03*
%TO.P,U1,12,IO_23/D7_12*%
%TO.N,unconnected-(U1-IO_23{slash}D7-Pad12)*%
X136730000Y-101430000D03*
%TO.P,U1,13,IO_14/TMS_13*%
%TO.N,unconnected-(U1-IO_14{slash}TMS-Pad13)*%
X139270000Y-103970000D03*
%TO.P,U1,14,IO_05/D8_14*%
%TO.N,unconnected-(U1-IO_05{slash}D8-Pad14)*%
X139270000Y-101430000D03*
%TO.P,U1,15,NC_15*%
%TO.N,unconnected-(U1-NC-Pad15)*%
X141810000Y-103970000D03*
%TO.P,U1,16,3V3_16*%
%TO.N,+3.3V*%
X141810000Y-101430000D03*
%TO.P,U1,17,IO_09/SD2_17*%
%TO.N,unconnected-(U1-IO_09{slash}SD2-Pad17)*%
X144350000Y-103970000D03*
%TO.P,U1,18,IO_13/TCK_18*%
%TO.N,unconnected-(U1-IO_13{slash}TCK-Pad18)*%
X144350000Y-101430000D03*
%TO.P,U1,19,CMD_19*%
%TO.N,unconnected-(U1-CMD-Pad19)*%
X146890000Y-103970000D03*
%TO.P,U1,20,IO_10/SD3_20*%
%TO.N,unconnected-(U1-IO_10{slash}SD3-Pad20)*%
X146890000Y-101430000D03*
%TO.P,U1,21,TXD_21*%
%TO.N,unconnected-(U1-TXD-Pad21)*%
X124030000Y-78570000D03*
%TO.P,U1,22,GND_22*%
%TO.N,GND*%
X124030000Y-76030000D03*
%TO.P,U1,23,RXD_23*%
%TO.N,unconnected-(U1-RXD-Pad23)*%
X126570000Y-78570000D03*
%TO.P,U1,24,IO_27_24*%
%TO.N,unconnected-(U1-IO_27-Pad24)*%
X126570000Y-76030000D03*
%TO.P,U1,25,IO_22/D1/SCL_25*%
%TO.N,Net-(J2-Pin_3)*%
X129110000Y-78570000D03*
%TO.P,U1,26,IO_25_26*%
%TO.N,unconnected-(U1-IO_25-Pad26)*%
X129110000Y-76030000D03*
%TO.P,U1,27,IO_21/D2/SDA_27*%
%TO.N,Net-(J2-Pin_4)*%
X131650000Y-78570000D03*
%TO.P,U1,28,IO_32_28*%
%TO.N,unconnected-(U1-IO_32-Pad28)*%
X131650000Y-76030000D03*
%TO.P,U1,29,IO_17/D3_29*%
%TO.N,Net-(Q3-G)*%
X134190000Y-78570000D03*
%TO.P,U1,30,IO_12/TDI_30*%
%TO.N,unconnected-(U1-IO_12{slash}TDI-Pad30)*%
X134190000Y-76030000D03*
%TO.P,U1,31,IO_16/D4_31*%
%TO.N,Net-(Q4-G)*%
X136730000Y-78570000D03*
%TO.P,U1,32,IO_04_32*%
%TO.N,Net-(Q1-G)*%
X136730000Y-76030000D03*
%TO.P,U1,33,GND_33*%
%TO.N,GND*%
X139270000Y-78570000D03*
%TO.P,U1,34,IO_00_34*%
%TO.N,unconnected-(U1-IO_00-Pad34)*%
X139270000Y-76030000D03*
%TO.P,U1,35,VCC_(USB)_35*%
%TO.N,Net-(D1-K)*%
X141810000Y-78570000D03*
%TO.P,U1,36,IO_02_36*%
%TO.N,unconnected-(U1-IO_02-Pad36)*%
X141810000Y-76030000D03*
%TO.P,U1,37,TD0_37*%
%TO.N,unconnected-(U1-TD0-Pad37)*%
X144350000Y-78570000D03*
%TO.P,U1,38,SD1_38*%
%TO.N,unconnected-(U1-SD1-Pad38)*%
X144350000Y-76030000D03*
%TO.P,U1,39,SD0_39*%
%TO.N,unconnected-(U1-SD0-Pad39)*%
X146890000Y-78570000D03*
%TO.P,U1,40,CLK_40*%
%TO.N,unconnected-(U1-CLK-Pad40)*%
X146890000Y-76030000D03*
%TD*%
D16*
%TO.P,J3,1,Pin_1_1*%
%TO.N,+3.3V*%
X140500000Y-108420000D03*
D17*
%TO.P,J3,2,Pin_2_2*%
%TO.N,GND*%
X140500000Y-110960000D03*
%TO.P,J3,3,Pin_3_3*%
%TO.N,Net-(J2-Pin_4)*%
X140500000Y-113500000D03*
%TO.P,J3,4,Pin_4_4*%
%TO.N,Net-(J2-Pin_3)*%
X140500000Y-116040000D03*
%TD*%
D12*
%TO.P,R4,1*%
%TO.N,GND*%
X166500000Y-86500000D03*
%TO.P,R4,2*%
%TO.N,Net-(Q4-G)*%
X166500000Y-76340000D03*
%TD*%
D16*
%TO.P,J1,1,Pin_1_1*%
%TO.N,Net-(D1-K)*%
X140500000Y-65960000D03*
D17*
%TO.P,J1,2,Pin_2_2*%
%TO.N,GND*%
X140500000Y-68500000D03*
%TD*%
D12*
%TO.P,R1,1*%
%TO.N,GND*%
X109500000Y-76840000D03*
%TO.P,R1,2*%
%TO.N,Net-(Q1-G)*%
X109500000Y-87000000D03*
%TD*%
%TO.P,100nf-alti1,1*%
%TO.N,+3.3V*%
X127000000Y-109000000D03*
%TO.P,100nf-alti1,2*%
%TO.N,GND*%
X132000000Y-109000000D03*
%TD*%
D10*
%TO.P,D4,1,K_1*%
%TO.N,Net-(D1-K)*%
X178500000Y-86000000D03*
D11*
%TO.P,D4,2,A_2*%
%TO.N,Net-(D4-A)*%
X178500000Y-75840000D03*
%TD*%
D16*
%TO.P,J2,1,Pin_1_1*%
%TO.N,+3.3V*%
X122300000Y-114000000D03*
D17*
%TO.P,J2,2,Pin_2_2*%
%TO.N,GND*%
X124840000Y-114000000D03*
%TO.P,J2,3,Pin_3_3*%
%TO.N,Net-(J2-Pin_3)*%
X127380000Y-114000000D03*
%TO.P,J2,4,Pin_4_4*%
%TO.N,Net-(J2-Pin_4)*%
X129920000Y-114000000D03*
%TO.P,J2,5,Pin_5_5*%
%TO.N,unconnected-(J2-Pin_5-Pad5)*%
X132460000Y-114000000D03*
%TO.P,J2,6,Pin_6_6*%
%TO.N,unconnected-(J2-Pin_6-Pad6)*%
X135000000Y-114000000D03*
%TD*%
D18*
%TO.N,+3.3V*%
X121000000Y-111000000D03*
%TO.N,GND*%
X104000000Y-117000000D03*
X157000000Y-113000000D03*
X101000000Y-114000000D03*
%TO.N,Net-(J2-Pin_3)*%
X132000000Y-116000000D03*
X121000000Y-85680000D03*
%TO.N,Net-(J2-Pin_4)*%
X132000000Y-112000000D03*
X125000000Y-88000000D03*
%TD*%
%TO.N,+3.3V*%
D19*
X122300000Y-113700000D02*
X122300000Y-114000000D01*
D20*
X121000000Y-111000000D02*
X121000000Y-112400000D01*
X121000000Y-112400000D02*
X122300000Y-113700000D01*
%TO.N,GND*%
X104000000Y-117000000D02*
X101000000Y-114000000D01*
%TO.N,Net-(J2-Pin_3)*%
X129380000Y-116000000D02*
X132000000Y-116000000D01*
X127380000Y-114000000D02*
X129380000Y-116000000D01*
X121000000Y-108000000D02*
X121620000Y-108620000D01*
D21*
X129110000Y-78890000D02*
X129110000Y-78570000D01*
D20*
X121620000Y-108620000D02*
X122000000Y-108620000D01*
X122000000Y-108620000D02*
X127380000Y-114000000D01*
X121000000Y-85680000D02*
X121000000Y-108000000D01*
%TO.N,Net-(J2-Pin_4)*%
X122000000Y-106000000D02*
X124000000Y-108000000D01*
X125000000Y-88000000D02*
X122000000Y-91000000D01*
X130000000Y-114000000D02*
X132000000Y-112000000D01*
X122000000Y-91000000D02*
X122000000Y-106000000D01*
X124000000Y-108080000D02*
X129920000Y-114000000D01*
D21*
X124000000Y-108000000D02*
X124000000Y-108080000D01*
X129920000Y-114000000D02*
X130000000Y-114000000D01*
%TD*%
%TA.AperFunction,Conductor*%
%TO.N,GND*%
G36*
X123005703Y-102068071D02*
G01*
X123024816Y-102088896D01*
X123114310Y-102212073D01*
X123247927Y-102345690D01*
X123400801Y-102456760D01*
X123569168Y-102542547D01*
X123691612Y-102582331D01*
X123749287Y-102621769D01*
X123776485Y-102686127D01*
X123764570Y-102754974D01*
X123717326Y-102806449D01*
X123691612Y-102818193D01*
X123569361Y-102857915D01*
X123401060Y-102943669D01*
X123375670Y-102962116D01*
X123375669Y-102962116D01*
X123983554Y-103570000D01*
X123977339Y-103570000D01*
X123875606Y-103597259D01*
X123784394Y-103649920D01*
X123709920Y-103724394D01*
X123657259Y-103815606D01*
X123630000Y-103917339D01*
X123630000Y-103923553D01*
X123022116Y-103315669D01*
X123019752Y-103315856D01*
X122969491Y-103354615D01*
X122899878Y-103360596D01*
X122838082Y-103327992D01*
X122803723Y-103267154D01*
X122800500Y-103239065D01*
X122800500Y-102161784D01*
X122820185Y-102094745D01*
X122872989Y-102048990D01*
X122942147Y-102039046D01*
X123005703Y-102068071D01*
G37*
%TD.AperFunction*%
%TA.AperFunction,Conductor*%
G36*
X125354712Y-101696238D02*
G01*
X125406188Y-101743482D01*
X125417931Y-101769196D01*
X125457454Y-101890836D01*
X125538038Y-102048990D01*
X125543240Y-102059199D01*
X125654310Y-102212073D01*
X125787927Y-102345690D01*
X125940801Y-102456760D01*
X126020347Y-102497290D01*
X126109163Y-102542545D01*
X126109165Y-102542545D01*
X126109168Y-102542547D01*
X126198734Y-102571649D01*
X126230803Y-102582069D01*
X126288478Y-102621507D01*
X126315676Y-102685866D01*
X126303761Y-102754712D01*
X126256516Y-102806188D01*
X126230803Y-102817931D01*
X126109163Y-102857454D01*
X125940800Y-102943240D01*
X125853579Y-103006610D01*
X125787927Y-103054310D01*
X125787925Y-103054312D01*
X125787924Y-103054312D01*
X125654312Y-103187924D01*
X125654312Y-103187925D01*
X125654310Y-103187927D01*
X125617156Y-103239065D01*
X125543240Y-103340800D01*
X125457454Y-103509163D01*
X125417668Y-103631612D01*
X125378230Y-103689287D01*
X125313871Y-103716485D01*
X125245025Y-103704570D01*
X125193549Y-103657325D01*
X125181806Y-103631611D01*
X125142085Y-103509362D01*
X125056329Y-103341059D01*
X125037883Y-103315670D01*
X125037882Y-103315669D01*
X124430000Y-103923552D01*
X124430000Y-103917339D01*
X124402741Y-103815606D01*
X124350080Y-103724394D01*
X124275606Y-103649920D01*
X124184394Y-103597259D01*
X124082661Y-103570000D01*
X124076447Y-103570000D01*
X124684328Y-102962116D01*
X124658933Y-102943666D01*
X124490637Y-102857914D01*
X124368388Y-102818193D01*
X124310712Y-102778755D01*
X124283514Y-102714397D01*
X124295429Y-102645550D01*
X124342673Y-102594075D01*
X124368382Y-102582333D01*
X124490832Y-102542547D01*
X124659199Y-102456760D01*
X124812073Y-102345690D01*
X124945690Y-102212073D01*
X125056760Y-102059199D01*
X125142547Y-101890832D01*
X125182069Y-101769195D01*
X125221507Y-101711521D01*
X125285866Y-101684323D01*
X125354712Y-101696238D01*
G37*
%TD.AperFunction*%
%TA.AperFunction,Conductor*%
G36*
X138054712Y-76296238D02*
G01*
X138106188Y-76343482D01*
X138117931Y-76369196D01*
X138157454Y-76490836D01*
X138235768Y-76644534D01*
X138243240Y-76659199D01*
X138354310Y-76812073D01*
X138487927Y-76945690D01*
X138640801Y-77056760D01*
X138809168Y-77142547D01*
X138931612Y-77182331D01*
X138989287Y-77221769D01*
X139016485Y-77286127D01*
X139004570Y-77354974D01*
X138957326Y-77406449D01*
X138931612Y-77418193D01*
X138809361Y-77457915D01*
X138641060Y-77543669D01*
X138615670Y-77562116D01*
X138615669Y-77562116D01*
X139223554Y-78170000D01*
X139217339Y-78170000D01*
X139115606Y-78197259D01*
X139024394Y-78249920D01*
X138949920Y-78324394D01*
X138897259Y-78415606D01*
X138870000Y-78517339D01*
X138870000Y-78523553D01*
X138262116Y-77915669D01*
X138262116Y-77915670D01*
X138243669Y-77941060D01*
X138157915Y-78109361D01*
X138118193Y-78231612D01*
X138078755Y-78289287D01*
X138014396Y-78316485D01*
X137945550Y-78304570D01*
X137894074Y-78257326D01*
X137882332Y-78231614D01*
X137842547Y-78109168D01*
X137756760Y-77940801D01*
X137645690Y-77787927D01*
X137512073Y-77654310D01*
X137359199Y-77543240D01*
X137190836Y-77457454D01*
X137116472Y-77433291D01*
X137069195Y-77417930D01*
X137011521Y-77378493D01*
X136984323Y-77314134D01*
X136996238Y-77245288D01*
X137043482Y-77193812D01*
X137069194Y-77182069D01*
X137190832Y-77142547D01*
X137359199Y-77056760D01*
X137512073Y-76945690D01*
X137645690Y-76812073D01*
X137756760Y-76659199D01*
X137842547Y-76490832D01*
X137882069Y-76369195D01*
X137921507Y-76311521D01*
X137985866Y-76284323D01*
X138054712Y-76296238D01*
G37*
%TD.AperFunction*%
%TA.AperFunction,Conductor*%
G36*
X140594712Y-76296238D02*
G01*
X140646188Y-76343482D01*
X140657931Y-76369196D01*
X140697454Y-76490836D01*
X140775768Y-76644534D01*
X140783240Y-76659199D01*
X140894310Y-76812073D01*
X141027927Y-76945690D01*
X141180801Y-77056760D01*
X141237415Y-77085606D01*
X141349163Y-77142545D01*
X141349165Y-77142545D01*
X141349168Y-77142547D01*
X141403129Y-77160080D01*
X141470803Y-77182069D01*
X141528478Y-77221507D01*
X141555676Y-77285866D01*
X141543761Y-77354712D01*
X141496516Y-77406188D01*
X141470803Y-77417931D01*
X141349163Y-77457454D01*
X141180800Y-77543240D01*
X141093579Y-77606610D01*
X141027927Y-77654310D01*
X141027925Y-77654312D01*
X141027924Y-77654312D01*
X140894312Y-77787924D01*
X140894312Y-77787925D01*
X140894310Y-77787927D01*
X140861411Y-77833209D01*
X140783240Y-77940800D01*
X140697454Y-78109163D01*
X140657668Y-78231612D01*
X140618230Y-78289287D01*
X140553871Y-78316485D01*
X140485025Y-78304570D01*
X140433549Y-78257325D01*
X140421806Y-78231611D01*
X140382085Y-78109362D01*
X140296329Y-77941059D01*
X140277883Y-77915670D01*
X140277882Y-77915669D01*
X139670000Y-78523552D01*
X139670000Y-78517339D01*
X139642741Y-78415606D01*
X139590080Y-78324394D01*
X139515606Y-78249920D01*
X139424394Y-78197259D01*
X139322661Y-78170000D01*
X139316447Y-78170000D01*
X139924328Y-77562116D01*
X139898933Y-77543666D01*
X139730637Y-77457914D01*
X139608388Y-77418193D01*
X139550712Y-77378755D01*
X139523514Y-77314397D01*
X139535429Y-77245550D01*
X139582673Y-77194075D01*
X139608382Y-77182333D01*
X139730832Y-77142547D01*
X139899199Y-77056760D01*
X140052073Y-76945690D01*
X140185690Y-76812073D01*
X140296760Y-76659199D01*
X140382547Y-76490832D01*
X140422069Y-76369195D01*
X140461507Y-76311521D01*
X140525866Y-76284323D01*
X140594712Y-76296238D01*
G37*
%TD.AperFunction*%
%TA.AperFunction,Conductor*%
G36*
X125037882Y-76684328D02*
G01*
X125037883Y-76684328D01*
X125056331Y-76658937D01*
X125142086Y-76490635D01*
X125181806Y-76368389D01*
X125221243Y-76310713D01*
X125285601Y-76283514D01*
X125354448Y-76295428D01*
X125405924Y-76342672D01*
X125417668Y-76368387D01*
X125457454Y-76490836D01*
X125535768Y-76644534D01*
X125543240Y-76659199D01*
X125654310Y-76812073D01*
X125787927Y-76945690D01*
X125940801Y-77056760D01*
X125997415Y-77085606D01*
X126109163Y-77142545D01*
X126109165Y-77142545D01*
X126109168Y-77142547D01*
X126163129Y-77160080D01*
X126230803Y-77182069D01*
X126288478Y-77221507D01*
X126315676Y-77285866D01*
X126303761Y-77354712D01*
X126256516Y-77406188D01*
X126230803Y-77417931D01*
X126109163Y-77457454D01*
X125940800Y-77543240D01*
X125853579Y-77606610D01*
X125787927Y-77654310D01*
X125787925Y-77654312D01*
X125787924Y-77654312D01*
X125654312Y-77787924D01*
X125654312Y-77787925D01*
X125654310Y-77787927D01*
X125621411Y-77833209D01*
X125543240Y-77940800D01*
X125457454Y-78109163D01*
X125417931Y-78230803D01*
X125378493Y-78288478D01*
X125314134Y-78315676D01*
X125245288Y-78303761D01*
X125193812Y-78256516D01*
X125182069Y-78230803D01*
X125171170Y-78197259D01*
X125142547Y-78109168D01*
X125142545Y-78109165D01*
X125142545Y-78109163D01*
X125086239Y-77998657D01*
X125056760Y-77940801D01*
X124945690Y-77787927D01*
X124812073Y-77654310D01*
X124659199Y-77543240D01*
X124490836Y-77457454D01*
X124370003Y-77418193D01*
X124368386Y-77417667D01*
X124310712Y-77378230D01*
X124283514Y-77313871D01*
X124295429Y-77245025D01*
X124342673Y-77193549D01*
X124368389Y-77181806D01*
X124490635Y-77142086D01*
X124658937Y-77056331D01*
X124684328Y-77037883D01*
X124684328Y-77037882D01*
X124076447Y-76430000D01*
X124082661Y-76430000D01*
X124184394Y-76402741D01*
X124275606Y-76350080D01*
X124350080Y-76275606D01*
X124402741Y-76184394D01*
X124430000Y-76082661D01*
X124430000Y-76076446D01*
X125037882Y-76684328D01*
G37*
%TD.AperFunction*%
%TA.AperFunction,Conductor*%
G36*
X149754789Y-60520185D02*
G01*
X149786949Y-60550099D01*
X160081575Y-74276268D01*
X160099500Y-74307314D01*
X160120940Y-74328754D01*
X160139135Y-74353014D01*
X160167337Y-74375151D01*
X160192686Y-74400500D01*
X160218939Y-74415657D01*
X160225874Y-74421100D01*
X160242793Y-74434381D01*
X160242800Y-74434385D01*
X160268916Y-74445540D01*
X160282209Y-74452186D01*
X160306814Y-74466392D01*
X160306816Y-74466392D01*
X160306817Y-74466393D01*
X160327588Y-74471959D01*
X160327589Y-74471959D01*
X160336104Y-74474240D01*
X160363988Y-74486151D01*
X160399474Y-74491219D01*
X160406664Y-74493146D01*
X160434108Y-74500500D01*
X160464433Y-74500500D01*
X160494449Y-74504788D01*
X160530041Y-74500500D01*
X177276689Y-74500500D01*
X177343728Y-74520185D01*
X177389483Y-74572989D01*
X177399427Y-74642147D01*
X177370402Y-74705703D01*
X177364370Y-74712181D01*
X177279205Y-74797345D01*
X177279201Y-74797350D01*
X177131132Y-75001151D01*
X177016760Y-75225616D01*
X176938910Y-75465214D01*
X176926186Y-75545552D01*
X176899500Y-75714038D01*
X176899500Y-75965962D01*
X176920337Y-76097523D01*
X176938910Y-76214785D01*
X177016760Y-76454383D01*
X177088100Y-76594394D01*
X177120986Y-76658937D01*
X177131132Y-76678848D01*
X177279201Y-76882649D01*
X177279205Y-76882654D01*
X177457345Y-77060794D01*
X177457350Y-77060798D01*
X177624266Y-77182069D01*
X177661155Y-77208870D01*
X177804184Y-77281747D01*
X177885616Y-77323239D01*
X177885618Y-77323239D01*
X177885621Y-77323241D01*
X178125215Y-77401090D01*
X178374038Y-77440500D01*
X178374039Y-77440500D01*
X178625961Y-77440500D01*
X178625962Y-77440500D01*
X178874785Y-77401090D01*
X179114379Y-77323241D01*
X179338845Y-77208870D01*
X179542656Y-77060793D01*
X179720793Y-76882656D01*
X179868870Y-76678845D01*
X179983241Y-76454379D01*
X180061090Y-76214785D01*
X180100500Y-75965962D01*
X180100500Y-75714038D01*
X180061090Y-75465215D01*
X179983241Y-75225621D01*
X179983239Y-75225618D01*
X179983239Y-75225616D01*
X179914139Y-75090001D01*
X179868870Y-75001155D01*
X179765987Y-74859548D01*
X179720798Y-74797350D01*
X179720794Y-74797345D01*
X179635630Y-74712181D01*
X179602145Y-74650858D01*
X179607129Y-74581166D01*
X179649001Y-74525233D01*
X179714465Y-74500816D01*
X179723311Y-74500500D01*
X198555745Y-74500500D01*
X198622784Y-74520185D01*
X198668539Y-74572989D01*
X198678483Y-74642147D01*
X198649458Y-74705703D01*
X198590680Y-74743477D01*
X198129837Y-74878793D01*
X197627839Y-75066029D01*
X197140518Y-75288580D01*
X197140511Y-75288584D01*
X196670286Y-75545347D01*
X196219568Y-75835004D01*
X196219563Y-75835007D01*
X195790675Y-76156068D01*
X195385769Y-76506922D01*
X195385743Y-76506946D01*
X195006946Y-76885743D01*
X195006922Y-76885769D01*
X194656068Y-77290675D01*
X194335007Y-77719563D01*
X194335004Y-77719568D01*
X194045347Y-78170286D01*
X193788584Y-78640511D01*
X193788580Y-78640518D01*
X193566029Y-79127839D01*
X193378793Y-79629837D01*
X193227852Y-80143892D01*
X193227849Y-80143902D01*
X193113968Y-80667406D01*
X193037721Y-81197721D01*
X192999500Y-81732116D01*
X192999500Y-82267883D01*
X193037721Y-82802278D01*
X193113968Y-83332593D01*
X193227849Y-83856097D01*
X193227852Y-83856107D01*
X193343389Y-84249588D01*
X193378794Y-84370165D01*
X193509678Y-84721079D01*
X193566029Y-84872160D01*
X193788580Y-85359481D01*
X193788584Y-85359488D01*
X194045347Y-85829713D01*
X194335004Y-86280431D01*
X194335007Y-86280436D01*
X194656068Y-86709324D01*
X194797670Y-86872741D01*
X195006925Y-87114234D01*
X195006934Y-87114243D01*
X195006946Y-87114256D01*
X195385743Y-87493053D01*
X195385756Y-87493065D01*
X195385766Y-87493075D01*
X195509740Y-87600499D01*
X195790675Y-87843931D01*
X196219563Y-88164992D01*
X196219568Y-88164995D01*
X196670280Y-88454649D01*
X197140507Y-88711413D01*
X197140511Y-88711415D01*
X197140518Y-88711419D01*
X197627839Y-88933970D01*
X197627843Y-88933971D01*
X197627853Y-88933976D01*
X198129835Y-89121206D01*
X198412079Y-89204080D01*
X198590680Y-89256523D01*
X198649458Y-89294297D01*
X198678483Y-89357853D01*
X198668539Y-89427012D01*
X198622784Y-89479816D01*
X198555745Y-89499500D01*
X160434108Y-89499500D01*
X160306812Y-89533608D01*
X160192686Y-89599500D01*
X160192683Y-89599502D01*
X160099502Y-89692683D01*
X160099500Y-89692686D01*
X160033608Y-89806812D01*
X159999500Y-89934108D01*
X159999500Y-104065891D01*
X160033608Y-104193187D01*
X160046552Y-104215606D01*
X160099500Y-104307314D01*
X160192686Y-104400500D01*
X160306814Y-104466392D01*
X160434108Y-104500500D01*
X198555745Y-104500500D01*
X198622784Y-104520185D01*
X198668539Y-104572989D01*
X198678483Y-104642147D01*
X198649458Y-104705703D01*
X198590680Y-104743477D01*
X198129837Y-104878793D01*
X197627839Y-105066029D01*
X197140518Y-105288580D01*
X197140511Y-105288584D01*
X196670286Y-105545347D01*
X196219568Y-105835004D01*
X196219563Y-105835007D01*
X195790675Y-106156068D01*
X195385769Y-106506922D01*
X195385743Y-106506946D01*
X195006946Y-106885743D01*
X195006922Y-106885769D01*
X194656068Y-107290675D01*
X194335007Y-107719563D01*
X194335004Y-107719568D01*
X194045347Y-108170286D01*
X193788584Y-108640511D01*
X193788580Y-108640518D01*
X193566029Y-109127839D01*
X193378793Y-109629837D01*
X193227852Y-110143892D01*
X193227849Y-110143902D01*
X193113968Y-110667406D01*
X193037721Y-111197721D01*
X192999500Y-111732116D01*
X192999500Y-112267883D01*
X193037721Y-112802278D01*
X193113968Y-113332593D01*
X193227849Y-113856097D01*
X193227852Y-113856107D01*
X193378793Y-114370162D01*
X193378794Y-114370165D01*
X193554573Y-114841447D01*
X193566029Y-114872160D01*
X193788580Y-115359481D01*
X193788584Y-115359488D01*
X194024279Y-115791130D01*
X194045351Y-115829720D01*
X194185725Y-116048147D01*
X194335004Y-116280431D01*
X194335007Y-116280436D01*
X194656068Y-116709324D01*
X194877730Y-116965135D01*
X195006925Y-117114234D01*
X195006934Y-117114243D01*
X195006946Y-117114256D01*
X195385743Y-117493053D01*
X195385756Y-117493065D01*
X195385766Y-117493075D01*
X195433902Y-117534785D01*
X195790675Y-117843931D01*
X196219563Y-118164992D01*
X196219568Y-118164995D01*
X196670280Y-118454649D01*
X197128314Y-118704755D01*
X197140511Y-118711415D01*
X197140518Y-118711419D01*
X197627839Y-118933970D01*
X197627843Y-118933971D01*
X197627853Y-118933976D01*
X198129835Y-119121206D01*
X198412079Y-119204080D01*
X198590680Y-119256523D01*
X198649458Y-119294297D01*
X198678483Y-119357853D01*
X198668539Y-119427012D01*
X198622784Y-119479816D01*
X198555745Y-119499500D01*
X78444255Y-119499500D01*
X78377216Y-119479815D01*
X78331461Y-119427011D01*
X78321517Y-119357853D01*
X78350542Y-119294297D01*
X78409320Y-119256523D01*
X78546050Y-119216374D01*
X78870165Y-119121206D01*
X79372147Y-118933976D01*
X79424922Y-118909874D01*
X79859481Y-118711419D01*
X79859485Y-118711416D01*
X79859493Y-118711413D01*
X80329720Y-118454649D01*
X80780432Y-118164995D01*
X80819272Y-118135920D01*
X81209324Y-117843931D01*
X81236849Y-117820080D01*
X81614234Y-117493075D01*
X81993075Y-117114234D01*
X82062565Y-117034038D01*
X96899500Y-117034038D01*
X96899500Y-117285961D01*
X96938910Y-117534785D01*
X97016760Y-117774383D01*
X97131132Y-117998848D01*
X97279201Y-118202649D01*
X97279205Y-118202654D01*
X97457345Y-118380794D01*
X97457350Y-118380798D01*
X97613833Y-118494489D01*
X97661155Y-118528870D01*
X97804184Y-118601747D01*
X97885616Y-118643239D01*
X97885618Y-118643239D01*
X97885621Y-118643241D01*
X98125215Y-118721090D01*
X98374038Y-118760500D01*
X98374039Y-118760500D01*
X98625961Y-118760500D01*
X98625962Y-118760500D01*
X98874785Y-118721090D01*
X99114379Y-118643241D01*
X99338845Y-118528870D01*
X99441002Y-118454649D01*
X99472318Y-118431897D01*
X99542650Y-118380798D01*
X99542652Y-118380795D01*
X99542656Y-118380793D01*
X99720793Y-118202656D01*
X99868870Y-117998845D01*
X99983241Y-117774379D01*
X100061090Y-117534785D01*
X100082805Y-117397682D01*
X108700000Y-117397682D01*
X108700000Y-117602317D01*
X108732009Y-117804417D01*
X108795244Y-117999031D01*
X108888141Y-118181350D01*
X108888147Y-118181359D01*
X108920523Y-118225921D01*
X108920524Y-118225922D01*
X109600000Y-117546446D01*
X109600000Y-117552661D01*
X109627259Y-117654394D01*
X109679920Y-117745606D01*
X109754394Y-117820080D01*
X109845606Y-117872741D01*
X109947339Y-117900000D01*
X109953553Y-117900000D01*
X109274076Y-118579474D01*
X109318650Y-118611859D01*
X109500968Y-118704755D01*
X109695582Y-118767990D01*
X109897683Y-118800000D01*
X110102317Y-118800000D01*
X110304417Y-118767990D01*
X110499031Y-118704755D01*
X110681349Y-118611859D01*
X110725921Y-118579474D01*
X110046447Y-117900000D01*
X110052661Y-117900000D01*
X110154394Y-117872741D01*
X110245606Y-117820080D01*
X110320080Y-117745606D01*
X110372741Y-117654394D01*
X110400000Y-117552661D01*
X110400000Y-117546447D01*
X111079474Y-118225921D01*
X111111859Y-118181349D01*
X111135007Y-118135920D01*
X111204755Y-117999031D01*
X111267990Y-117804417D01*
X111300000Y-117602317D01*
X111300000Y-117397682D01*
X111267990Y-117195582D01*
X111204755Y-117000968D01*
X111111859Y-116818650D01*
X111079474Y-116774077D01*
X111079474Y-116774076D01*
X110400000Y-117453551D01*
X110400000Y-117447339D01*
X110372741Y-117345606D01*
X110320080Y-117254394D01*
X110245606Y-117179920D01*
X110154394Y-117127259D01*
X110052661Y-117100000D01*
X110046446Y-117100000D01*
X110725922Y-116420524D01*
X110725921Y-116420523D01*
X110681359Y-116388147D01*
X110681350Y-116388141D01*
X110499031Y-116295244D01*
X110304417Y-116232009D01*
X110102317Y-116200000D01*
X109897683Y-116200000D01*
X109695582Y-116232009D01*
X109500968Y-116295244D01*
X109318644Y-116388143D01*
X109274077Y-116420523D01*
X109274077Y-116420524D01*
X109953554Y-117100000D01*
X109947339Y-117100000D01*
X109845606Y-117127259D01*
X109754394Y-117179920D01*
X109679920Y-117254394D01*
X109627259Y-117345606D01*
X109600000Y-117447339D01*
X109600000Y-117453553D01*
X108920524Y-116774077D01*
X108920523Y-116774077D01*
X108888143Y-116818644D01*
X108795244Y-117000968D01*
X108732009Y-117195582D01*
X108700000Y-117397682D01*
X100082805Y-117397682D01*
X100100500Y-117285962D01*
X100100500Y-117034038D01*
X100061090Y-116785215D01*
X99983241Y-116545621D01*
X99983238Y-116545617D01*
X99983238Y-116545614D01*
X99972265Y-116524079D01*
X99972264Y-116524078D01*
X99965238Y-116510288D01*
X99868870Y-116321155D01*
X99758434Y-116169152D01*
X99720798Y-116117350D01*
X99720794Y-116117345D01*
X99542654Y-115939205D01*
X99542649Y-115939201D01*
X99338848Y-115791132D01*
X99338847Y-115791131D01*
X99338845Y-115791130D01*
X99268747Y-115755413D01*
X99114383Y-115676760D01*
X98874785Y-115598910D01*
X98625962Y-115559500D01*
X98374038Y-115559500D01*
X98307738Y-115570001D01*
X98125214Y-115598910D01*
X97885616Y-115676760D01*
X97661151Y-115791132D01*
X97457350Y-115939201D01*
X97457345Y-115939205D01*
X97279205Y-116117345D01*
X97279201Y-116117350D01*
X97131132Y-116321151D01*
X97016760Y-116545616D01*
X96938910Y-116785214D01*
X96899500Y-117034038D01*
X82062565Y-117034038D01*
X82343924Y-116709332D01*
X82343923Y-116709332D01*
X82343931Y-116709324D01*
X82664992Y-116280436D01*
X82664991Y-116280436D01*
X82664995Y-116280432D01*
X82954649Y-115829720D01*
X83211413Y-115359493D01*
X83211416Y-115359485D01*
X83211419Y-115359481D01*
X83428129Y-114884951D01*
X83433976Y-114872147D01*
X83621206Y-114370165D01*
X83772148Y-113856105D01*
X83779301Y-113823223D01*
X83886031Y-113332593D01*
X83891841Y-113292182D01*
X83962279Y-112802278D01*
X84000500Y-112267881D01*
X84000500Y-111732119D01*
X83962279Y-111197722D01*
X83886032Y-110667413D01*
X83886031Y-110667406D01*
X83772150Y-110143902D01*
X83772147Y-110143892D01*
X83727538Y-109991967D01*
X83621206Y-109629835D01*
X83433976Y-109127853D01*
X83433970Y-109127839D01*
X83211419Y-108640518D01*
X83211415Y-108640511D01*
X83183833Y-108589998D01*
X82954649Y-108170280D01*
X82664995Y-107719568D01*
X82664992Y-107719563D01*
X82343931Y-107290675D01*
X82122790Y-107035465D01*
X81993075Y-106885766D01*
X81993065Y-106885756D01*
X81993053Y-106885743D01*
X81614256Y-106506946D01*
X81614243Y-106506934D01*
X81614234Y-106506925D01*
X81249113Y-106190546D01*
X81209324Y-106156068D01*
X81134402Y-106099982D01*
X96899500Y-106099982D01*
X96899500Y-107900017D01*
X96910000Y-108002796D01*
X96965185Y-108169332D01*
X96965187Y-108169337D01*
X96976213Y-108187213D01*
X97057288Y-108318656D01*
X97181344Y-108442712D01*
X97330665Y-108534814D01*
X97497202Y-108589999D01*
X97599990Y-108600500D01*
X97599995Y-108600500D01*
X99400005Y-108600500D01*
X99400010Y-108600500D01*
X99502798Y-108589999D01*
X99669335Y-108534814D01*
X99818656Y-108442712D01*
X99942712Y-108318656D01*
X100034814Y-108169335D01*
X100089999Y-108002798D01*
X100100500Y-107900010D01*
X100100500Y-107237648D01*
X108699500Y-107237648D01*
X108699500Y-107442351D01*
X108731522Y-107644534D01*
X108794781Y-107839223D01*
X108887715Y-108021613D01*
X109008028Y-108187213D01*
X109152786Y-108331971D01*
X109242125Y-108396878D01*
X109318390Y-108452287D01*
X109432223Y-108510288D01*
X109500776Y-108545218D01*
X109500778Y-108545218D01*
X109500781Y-108545220D01*
X109549621Y-108561089D01*
X109695465Y-108608477D01*
X109796557Y-108624488D01*
X109897648Y-108640500D01*
X109897649Y-108640500D01*
X110102351Y-108640500D01*
X110102352Y-108640500D01*
X110304534Y-108608477D01*
X110499219Y-108545220D01*
X110681610Y-108452287D01*
X110796429Y-108368867D01*
X110847213Y-108331971D01*
X110847215Y-108331968D01*
X110847219Y-108331966D01*
X110991966Y-108187219D01*
X110991968Y-108187215D01*
X110991971Y-108187213D01*
X111096996Y-108042656D01*
X111112287Y-108021610D01*
X111205220Y-107839219D01*
X111268477Y-107644534D01*
X111300500Y-107442352D01*
X111300500Y-107237648D01*
X111274883Y-107075909D01*
X111268477Y-107035465D01*
X111220746Y-106888565D01*
X111205220Y-106840781D01*
X111205218Y-106840778D01*
X111205218Y-106840776D01*
X111131178Y-106695466D01*
X111112287Y-106658390D01*
X111088184Y-106625215D01*
X110991971Y-106492786D01*
X110847213Y-106348028D01*
X110681613Y-106227715D01*
X110681612Y-106227714D01*
X110681610Y-106227713D01*
X110608666Y-106190546D01*
X110499223Y-106134781D01*
X110304534Y-106071522D01*
X110129995Y-106043878D01*
X110102352Y-106039500D01*
X109897648Y-106039500D01*
X109873329Y-106043351D01*
X109695465Y-106071522D01*
X109500776Y-106134781D01*
X109318386Y-106227715D01*
X109152786Y-106348028D01*
X109008028Y-106492786D01*
X108887715Y-106658386D01*
X108794781Y-106840776D01*
X108731522Y-107035465D01*
X108699500Y-107237648D01*
X100100500Y-107237648D01*
X100100500Y-106099990D01*
X100089999Y-105997202D01*
X100034814Y-105830665D01*
X99942712Y-105681344D01*
X99818656Y-105557288D01*
X99669335Y-105465186D01*
X99502798Y-105410001D01*
X99502796Y-105410000D01*
X99400017Y-105399500D01*
X99400010Y-105399500D01*
X97599990Y-105399500D01*
X97599982Y-105399500D01*
X97497203Y-105410000D01*
X97497202Y-105410001D01*
X97414669Y-105437349D01*
X97330667Y-105465185D01*
X97330662Y-105465187D01*
X97181342Y-105557289D01*
X97057289Y-105681342D01*
X96965187Y-105830662D01*
X96965186Y-105830665D01*
X96910001Y-105997202D01*
X96910001Y-105997203D01*
X96910000Y-105997203D01*
X96899500Y-106099982D01*
X81134402Y-106099982D01*
X80780436Y-105835007D01*
X80780431Y-105835004D01*
X80441300Y-105617059D01*
X80329720Y-105545351D01*
X80182911Y-105465187D01*
X79859488Y-105288584D01*
X79859481Y-105288580D01*
X79372160Y-105066029D01*
X79186440Y-104996759D01*
X78870165Y-104878794D01*
X78870162Y-104878793D01*
X78409320Y-104743477D01*
X78350542Y-104705703D01*
X78321517Y-104642147D01*
X78331461Y-104572988D01*
X78377216Y-104520184D01*
X78444255Y-104500500D01*
X116565890Y-104500500D01*
X116565892Y-104500500D01*
X116693186Y-104466392D01*
X116807314Y-104400500D01*
X116900500Y-104307314D01*
X116966392Y-104193186D01*
X117000500Y-104065892D01*
X117000500Y-89934108D01*
X116966392Y-89806814D01*
X116900500Y-89692686D01*
X116807314Y-89599500D01*
X116750250Y-89566554D01*
X116693187Y-89533608D01*
X116629539Y-89516554D01*
X116565892Y-89499500D01*
X116565891Y-89499500D01*
X77944255Y-89499500D01*
X77877216Y-89479815D01*
X77831461Y-89427011D01*
X77821517Y-89357853D01*
X77850542Y-89294297D01*
X77909320Y-89256523D01*
X78046050Y-89216374D01*
X78370165Y-89121206D01*
X78872147Y-88933976D01*
X78924922Y-88909874D01*
X79359481Y-88711419D01*
X79359485Y-88711416D01*
X79359493Y-88711413D01*
X79829720Y-88454649D01*
X80280432Y-88164995D01*
X80350846Y-88112284D01*
X80709324Y-87843931D01*
X80760023Y-87800000D01*
X81114234Y-87493075D01*
X81493075Y-87114234D01*
X81839846Y-86714038D01*
X96399500Y-86714038D01*
X96399500Y-86965961D01*
X96438910Y-87214785D01*
X96516760Y-87454383D01*
X96631132Y-87678848D01*
X96779201Y-87882649D01*
X96779205Y-87882654D01*
X96957345Y-88060794D01*
X96957350Y-88060798D01*
X97100762Y-88164992D01*
X97161155Y-88208870D01*
X97304184Y-88281747D01*
X97385616Y-88323239D01*
X97385618Y-88323239D01*
X97385621Y-88323241D01*
X97625215Y-88401090D01*
X97874038Y-88440500D01*
X97874039Y-88440500D01*
X98125961Y-88440500D01*
X98125962Y-88440500D01*
X98374785Y-88401090D01*
X98614379Y-88323241D01*
X98838845Y-88208870D01*
X99042656Y-88060793D01*
X99220793Y-87882656D01*
X99368870Y-87678845D01*
X99483241Y-87454379D01*
X99561090Y-87214785D01*
X99600500Y-86965962D01*
X99600500Y-86897648D01*
X108199500Y-86897648D01*
X108199500Y-87102352D01*
X108203878Y-87129995D01*
X108231522Y-87304534D01*
X108294781Y-87499223D01*
X108352173Y-87611859D01*
X108386304Y-87678845D01*
X108387715Y-87681613D01*
X108508028Y-87847213D01*
X108652786Y-87991971D01*
X108772362Y-88078846D01*
X108818390Y-88112287D01*
X108921829Y-88164992D01*
X109000776Y-88205218D01*
X109000778Y-88205218D01*
X109000781Y-88205220D01*
X109087784Y-88233489D01*
X109195465Y-88268477D01*
X109296557Y-88284488D01*
X109397648Y-88300500D01*
X109397649Y-88300500D01*
X109602351Y-88300500D01*
X109602352Y-88300500D01*
X109804534Y-88268477D01*
X109999219Y-88205220D01*
X110181610Y-88112287D01*
X110274590Y-88044732D01*
X110347213Y-87991971D01*
X110347215Y-87991968D01*
X110347219Y-87991966D01*
X110491966Y-87847219D01*
X110491968Y-87847215D01*
X110491971Y-87847213D01*
X110595471Y-87704755D01*
X110612287Y-87681610D01*
X110705220Y-87499219D01*
X110768477Y-87304534D01*
X110800500Y-87102352D01*
X110800500Y-86897648D01*
X110785733Y-86804417D01*
X110768477Y-86695465D01*
X110705218Y-86500776D01*
X110626154Y-86345606D01*
X110612287Y-86318390D01*
X110584709Y-86280432D01*
X110491971Y-86152786D01*
X110347213Y-86008028D01*
X110181613Y-85887715D01*
X110181612Y-85887714D01*
X110181610Y-85887713D01*
X110067793Y-85829720D01*
X109999223Y-85794781D01*
X109804534Y-85731522D01*
X109716244Y-85717539D01*
X109708247Y-85716272D01*
X109602352Y-85699500D01*
X109397648Y-85699500D01*
X109373329Y-85703351D01*
X109195465Y-85731522D01*
X109000776Y-85794781D01*
X108818386Y-85887715D01*
X108652786Y-86008028D01*
X108508028Y-86152786D01*
X108387715Y-86318386D01*
X108294781Y-86500776D01*
X108231522Y-86695465D01*
X108206484Y-86853553D01*
X108199500Y-86897648D01*
X99600500Y-86897648D01*
X99600500Y-86714038D01*
X99561090Y-86465215D01*
X99483241Y-86225621D01*
X99483239Y-86225618D01*
X99483239Y-86225616D01*
X99419234Y-86100000D01*
X99368870Y-86001155D01*
X99349952Y-85975117D01*
X99220798Y-85797350D01*
X99220794Y-85797345D01*
X99042654Y-85619205D01*
X99042649Y-85619201D01*
X99017808Y-85601153D01*
X120199500Y-85601153D01*
X120199500Y-108078846D01*
X120230261Y-108233489D01*
X120230264Y-108233501D01*
X120290602Y-108379172D01*
X120290609Y-108379185D01*
X120378210Y-108510288D01*
X120378213Y-108510292D01*
X120998211Y-109130289D01*
X121109711Y-109241789D01*
X121109712Y-109241790D01*
X121165283Y-109278921D01*
X121240821Y-109329394D01*
X121343833Y-109372062D01*
X121386502Y-109389737D01*
X121541152Y-109420499D01*
X121541155Y-109420500D01*
X121541157Y-109420500D01*
X121541158Y-109420500D01*
X121617060Y-109420500D01*
X121684099Y-109440185D01*
X121704741Y-109456819D01*
X124703391Y-112455469D01*
X124736876Y-112516792D01*
X124731892Y-112586484D01*
X124690020Y-112642417D01*
X124635109Y-112665623D01*
X124523870Y-112683242D01*
X124523869Y-112683242D01*
X124321782Y-112748904D01*
X124132439Y-112845380D01*
X124078282Y-112884727D01*
X124078282Y-112884728D01*
X124710591Y-113517037D01*
X124647007Y-113534075D01*
X124532993Y-113599901D01*
X124439901Y-113692993D01*
X124374075Y-113807007D01*
X124357037Y-113870591D01*
X123686818Y-113200372D01*
X123653333Y-113139049D01*
X123650499Y-113112691D01*
X123650499Y-113102129D01*
X123650498Y-113102123D01*
X123644091Y-113042516D01*
X123593797Y-112907671D01*
X123593793Y-112907664D01*
X123507547Y-112792455D01*
X123507544Y-112792452D01*
X123392335Y-112706206D01*
X123392328Y-112706202D01*
X123257482Y-112655908D01*
X123257483Y-112655908D01*
X123197883Y-112649501D01*
X123197881Y-112649500D01*
X123197873Y-112649500D01*
X123197865Y-112649500D01*
X122432940Y-112649500D01*
X122365901Y-112629815D01*
X122345259Y-112613181D01*
X121836819Y-112104741D01*
X121803334Y-112043418D01*
X121800500Y-112017060D01*
X121800500Y-110921155D01*
X121800499Y-110921153D01*
X121769737Y-110766503D01*
X121718941Y-110643869D01*
X121709397Y-110620827D01*
X121709390Y-110620814D01*
X121621789Y-110489711D01*
X121621786Y-110489707D01*
X121510292Y-110378213D01*
X121510288Y-110378210D01*
X121379185Y-110290609D01*
X121379172Y-110290602D01*
X121233501Y-110230264D01*
X121233489Y-110230261D01*
X121078845Y-110199500D01*
X121078842Y-110199500D01*
X120921158Y-110199500D01*
X120921155Y-110199500D01*
X120766510Y-110230261D01*
X120766498Y-110230264D01*
X120620827Y-110290602D01*
X120620814Y-110290609D01*
X120489711Y-110378210D01*
X120489707Y-110378213D01*
X120378213Y-110489707D01*
X120378210Y-110489711D01*
X120290609Y-110620814D01*
X120290602Y-110620827D01*
X120230264Y-110766498D01*
X120230261Y-110766510D01*
X120199500Y-110921153D01*
X120199500Y-112478845D01*
X120230261Y-112633489D01*
X120230264Y-112633501D01*
X120290602Y-112779172D01*
X120290609Y-112779185D01*
X120378210Y-112910288D01*
X120378213Y-112910292D01*
X120913181Y-113445259D01*
X120946666Y-113506582D01*
X120949500Y-113532940D01*
X120949500Y-114897870D01*
X120949501Y-114897876D01*
X120955908Y-114957483D01*
X121006202Y-115092328D01*
X121006206Y-115092335D01*
X121092452Y-115207544D01*
X121092455Y-115207547D01*
X121207664Y-115293793D01*
X121207671Y-115293797D01*
X121342517Y-115344091D01*
X121342516Y-115344091D01*
X121349444Y-115344835D01*
X121402127Y-115350500D01*
X123197872Y-115350499D01*
X123257483Y-115344091D01*
X123392331Y-115293796D01*
X123507546Y-115207546D01*
X123593796Y-115092331D01*
X123644091Y-114957483D01*
X123650500Y-114897873D01*
X123650499Y-114873979D01*
X123653330Y-114860963D01*
X123663940Y-114841525D01*
X123670179Y-114820275D01*
X123686803Y-114799643D01*
X123686808Y-114799636D01*
X123686811Y-114799634D01*
X123686818Y-114799626D01*
X124357037Y-114129408D01*
X124374075Y-114192993D01*
X124439901Y-114307007D01*
X124532993Y-114400099D01*
X124647007Y-114465925D01*
X124710590Y-114482962D01*
X124078282Y-115115269D01*
X124078282Y-115115270D01*
X124132449Y-115154624D01*
X124321782Y-115251095D01*
X124523870Y-115316757D01*
X124733754Y-115350000D01*
X124946246Y-115350000D01*
X125156127Y-115316757D01*
X125156130Y-115316757D01*
X125358217Y-115251095D01*
X125547554Y-115154622D01*
X125601716Y-115115270D01*
X125601717Y-115115270D01*
X124969408Y-114482962D01*
X125032993Y-114465925D01*
X125147007Y-114400099D01*
X125240099Y-114307007D01*
X125305925Y-114192993D01*
X125322962Y-114129408D01*
X125955270Y-114761717D01*
X125955270Y-114761716D01*
X125994622Y-114707555D01*
X125999232Y-114698507D01*
X126047205Y-114647709D01*
X126115025Y-114630912D01*
X126181161Y-114653447D01*
X126220204Y-114698504D01*
X126224949Y-114707817D01*
X126349890Y-114879786D01*
X126500213Y-115030109D01*
X126672179Y-115155048D01*
X126672181Y-115155049D01*
X126672184Y-115155051D01*
X126861588Y-115251557D01*
X127063757Y-115317246D01*
X127273713Y-115350500D01*
X127273714Y-115350500D01*
X127486285Y-115350500D01*
X127486287Y-115350500D01*
X127520686Y-115345051D01*
X127589977Y-115354005D01*
X127627765Y-115379843D01*
X128758211Y-116510289D01*
X128869708Y-116621786D01*
X128869712Y-116621790D01*
X129000814Y-116709390D01*
X129000816Y-116709391D01*
X129000821Y-116709394D01*
X129093581Y-116747816D01*
X129093584Y-116747817D01*
X129093585Y-116747818D01*
X129146498Y-116769735D01*
X129146503Y-116769737D01*
X129301153Y-116800499D01*
X129301156Y-116800500D01*
X129301158Y-116800500D01*
X132078844Y-116800500D01*
X132078845Y-116800499D01*
X132233497Y-116769737D01*
X132379179Y-116709394D01*
X132510289Y-116621789D01*
X132621789Y-116510289D01*
X132709394Y-116379179D01*
X132769737Y-116233497D01*
X132800500Y-116078842D01*
X132800500Y-115921158D01*
X132800500Y-115921155D01*
X132800499Y-115921153D01*
X132784624Y-115841344D01*
X132769737Y-115766503D01*
X132769735Y-115766498D01*
X132709397Y-115620827D01*
X132709390Y-115620814D01*
X132639979Y-115516934D01*
X132619101Y-115450257D01*
X132637585Y-115382877D01*
X132689564Y-115336186D01*
X132723675Y-115325571D01*
X132776243Y-115317246D01*
X132978412Y-115251557D01*
X133167816Y-115155051D01*
X133254138Y-115092335D01*
X133339786Y-115030109D01*
X133339788Y-115030106D01*
X133339792Y-115030104D01*
X133490104Y-114879792D01*
X133490106Y-114879788D01*
X133490109Y-114879786D01*
X133615048Y-114707820D01*
X133615050Y-114707817D01*
X133615051Y-114707816D01*
X133619514Y-114699054D01*
X133667488Y-114648259D01*
X133735308Y-114631463D01*
X133801444Y-114653999D01*
X133840486Y-114699056D01*
X133844951Y-114707820D01*
X133969890Y-114879786D01*
X134120213Y-115030109D01*
X134292179Y-115155048D01*
X134292181Y-115155049D01*
X134292184Y-115155051D01*
X134481588Y-115251557D01*
X134683757Y-115317246D01*
X134893713Y-115350500D01*
X134893714Y-115350500D01*
X135106286Y-115350500D01*
X135106287Y-115350500D01*
X135316243Y-115317246D01*
X135518412Y-115251557D01*
X135707816Y-115155051D01*
X135794138Y-115092335D01*
X135879786Y-115030109D01*
X135879788Y-115030106D01*
X135879792Y-115030104D01*
X136030104Y-114879792D01*
X136030106Y-114879788D01*
X136030109Y-114879786D01*
X136155048Y-114707820D01*
X136155050Y-114707817D01*
X136155051Y-114707816D01*
X136251557Y-114518412D01*
X136317246Y-114316243D01*
X136350500Y-114106287D01*
X136350500Y-113893713D01*
X136317246Y-113683757D01*
X136251557Y-113481588D01*
X136238343Y-113455654D01*
X136232984Y-113445136D01*
X136220059Y-113419770D01*
X136155051Y-113292184D01*
X136137473Y-113267990D01*
X136030109Y-113120213D01*
X135879786Y-112969890D01*
X135707820Y-112844951D01*
X135518414Y-112748444D01*
X135518413Y-112748443D01*
X135518412Y-112748443D01*
X135316243Y-112682754D01*
X135316241Y-112682753D01*
X135316240Y-112682753D01*
X135154957Y-112657208D01*
X135106287Y-112649500D01*
X134893713Y-112649500D01*
X134845042Y-112657208D01*
X134683760Y-112682753D01*
X134481585Y-112748444D01*
X134292179Y-112844951D01*
X134120213Y-112969890D01*
X133969890Y-113120213D01*
X133844949Y-113292182D01*
X133840484Y-113300946D01*
X133792509Y-113351742D01*
X133724688Y-113368536D01*
X133658553Y-113345998D01*
X133619516Y-113300946D01*
X133615050Y-113292182D01*
X133490109Y-113120213D01*
X133339786Y-112969890D01*
X133167820Y-112844951D01*
X132978414Y-112748444D01*
X132978413Y-112748443D01*
X132978412Y-112748443D01*
X132776243Y-112682754D01*
X132776241Y-112682753D01*
X132776239Y-112682753D01*
X132723683Y-112674429D01*
X132723485Y-112674335D01*
X132723267Y-112674363D01*
X132691863Y-112659345D01*
X132660548Y-112644500D01*
X132660431Y-112644313D01*
X132660234Y-112644219D01*
X132641985Y-112614687D01*
X132623617Y-112585188D01*
X132623620Y-112584968D01*
X132623505Y-112584782D01*
X132624118Y-112550069D01*
X132624615Y-112515325D01*
X132624737Y-112515067D01*
X132624740Y-112514924D01*
X132629711Y-112504532D01*
X132629721Y-112504397D01*
X132630564Y-112502749D01*
X132638779Y-112485577D01*
X132639967Y-112483083D01*
X132642801Y-112478842D01*
X132709394Y-112379179D01*
X132769737Y-112233497D01*
X132800500Y-112078842D01*
X132800500Y-111921158D01*
X132800500Y-111921155D01*
X132800499Y-111921153D01*
X132769738Y-111766510D01*
X132769737Y-111766503D01*
X132751186Y-111721716D01*
X132709397Y-111620827D01*
X132709390Y-111620814D01*
X132621789Y-111489711D01*
X132621786Y-111489707D01*
X132510292Y-111378213D01*
X132510288Y-111378210D01*
X132379185Y-111290609D01*
X132379172Y-111290602D01*
X132233501Y-111230264D01*
X132233489Y-111230261D01*
X132078845Y-111199500D01*
X132078842Y-111199500D01*
X131921158Y-111199500D01*
X131921155Y-111199500D01*
X131766510Y-111230261D01*
X131766498Y-111230264D01*
X131620827Y-111290602D01*
X131620815Y-111290609D01*
X131532680Y-111349500D01*
X131532679Y-111349501D01*
X131489708Y-111378212D01*
X130236826Y-112631094D01*
X130175503Y-112664579D01*
X130129747Y-112665886D01*
X130026292Y-112649500D01*
X130026287Y-112649500D01*
X129813713Y-112649500D01*
X129813710Y-112649500D01*
X129779308Y-112654948D01*
X129710015Y-112645991D01*
X129672232Y-112620155D01*
X127459378Y-110407301D01*
X127425893Y-110345978D01*
X127430877Y-110276286D01*
X127472749Y-110220353D01*
X127495005Y-110207682D01*
X127494878Y-110207432D01*
X127512836Y-110198282D01*
X127681610Y-110112287D01*
X127774590Y-110044732D01*
X127847213Y-109991971D01*
X127847215Y-109991968D01*
X127847219Y-109991966D01*
X127991966Y-109847219D01*
X127991968Y-109847215D01*
X127991971Y-109847213D01*
X128047707Y-109770498D01*
X128112287Y-109681610D01*
X128205220Y-109499219D01*
X128268477Y-109304534D01*
X128300500Y-109102352D01*
X128300500Y-108897682D01*
X130700000Y-108897682D01*
X130700000Y-109102317D01*
X130732009Y-109304417D01*
X130795244Y-109499031D01*
X130888141Y-109681350D01*
X130888147Y-109681359D01*
X130920523Y-109725921D01*
X130920524Y-109725922D01*
X131600000Y-109046446D01*
X131600000Y-109052661D01*
X131627259Y-109154394D01*
X131679920Y-109245606D01*
X131754394Y-109320080D01*
X131845606Y-109372741D01*
X131947339Y-109400000D01*
X131953553Y-109400000D01*
X131274076Y-110079474D01*
X131318650Y-110111859D01*
X131500968Y-110204755D01*
X131695582Y-110267990D01*
X131897683Y-110300000D01*
X132102317Y-110300000D01*
X132304417Y-110267990D01*
X132499031Y-110204755D01*
X132681349Y-110111859D01*
X132725921Y-110079474D01*
X132046447Y-109400000D01*
X132052661Y-109400000D01*
X132154394Y-109372741D01*
X132245606Y-109320080D01*
X132320080Y-109245606D01*
X132372741Y-109154394D01*
X132400000Y-109052661D01*
X132400000Y-109046447D01*
X133079474Y-109725921D01*
X133111859Y-109681349D01*
X133204755Y-109499031D01*
X133267990Y-109304417D01*
X133300000Y-109102317D01*
X133300000Y-108897682D01*
X133267990Y-108695582D01*
X133204755Y-108500968D01*
X133111859Y-108318650D01*
X133079474Y-108274077D01*
X133079474Y-108274076D01*
X132400000Y-108953551D01*
X132400000Y-108947339D01*
X132372741Y-108845606D01*
X132320080Y-108754394D01*
X132245606Y-108679920D01*
X132154394Y-108627259D01*
X132052661Y-108600000D01*
X132046446Y-108600000D01*
X132725922Y-107920524D01*
X132725921Y-107920523D01*
X132681359Y-107888147D01*
X132681350Y-107888141D01*
X132499031Y-107795244D01*
X132304417Y-107732009D01*
X132102317Y-107700000D01*
X131897683Y-107700000D01*
X131695582Y-107732009D01*
X131500968Y-107795244D01*
X131318644Y-107888143D01*
X131274077Y-107920523D01*
X131274077Y-107920524D01*
X131953554Y-108600000D01*
X131947339Y-108600000D01*
X131845606Y-108627259D01*
X131754394Y-108679920D01*
X131679920Y-108754394D01*
X131627259Y-108845606D01*
X131600000Y-108947339D01*
X131600000Y-108953553D01*
X130920524Y-108274077D01*
X130920523Y-108274077D01*
X130888143Y-108318644D01*
X130795244Y-108500968D01*
X130732009Y-108695582D01*
X130700000Y-108897682D01*
X128300500Y-108897682D01*
X128300500Y-108897648D01*
X128288868Y-108824206D01*
X128268477Y-108695465D01*
X128225611Y-108563537D01*
X128205220Y-108500781D01*
X128205218Y-108500778D01*
X128205218Y-108500776D01*
X128163888Y-108419662D01*
X128112287Y-108318390D01*
X128080092Y-108274077D01*
X127991971Y-108152786D01*
X127847213Y-108008028D01*
X127681613Y-107887715D01*
X127681612Y-107887714D01*
X127681610Y-107887713D01*
X127624653Y-107858691D01*
X127499223Y-107794781D01*
X127304534Y-107731522D01*
X127129995Y-107703878D01*
X127102352Y-107699500D01*
X126897648Y-107699500D01*
X126873329Y-107703351D01*
X126695465Y-107731522D01*
X126500776Y-107794781D01*
X126318386Y-107887715D01*
X126152786Y-108008028D01*
X126008028Y-108152786D01*
X125887715Y-108318386D01*
X125792568Y-108505122D01*
X125791550Y-108504603D01*
X125751092Y-108554801D01*
X125684796Y-108576861D01*
X125617098Y-108559577D01*
X125592698Y-108540621D01*
X125222363Y-108170286D01*
X124752639Y-107700561D01*
X124752061Y-107699780D01*
X124751626Y-107699536D01*
X124749516Y-107696338D01*
X124730805Y-107671038D01*
X124728025Y-107665804D01*
X124709393Y-107620821D01*
X124643454Y-107522135D01*
X139149500Y-107522135D01*
X139149500Y-109317870D01*
X139149501Y-109317876D01*
X139155908Y-109377483D01*
X139206202Y-109512328D01*
X139206206Y-109512335D01*
X139292452Y-109627544D01*
X139292455Y-109627547D01*
X139407664Y-109713793D01*
X139407671Y-109713797D01*
X139452618Y-109730561D01*
X139542517Y-109764091D01*
X139602127Y-109770500D01*
X139612685Y-109770499D01*
X139679723Y-109790179D01*
X139700372Y-109806818D01*
X140370591Y-110477037D01*
X140307007Y-110494075D01*
X140192993Y-110559901D01*
X140099901Y-110652993D01*
X140034075Y-110767007D01*
X140017037Y-110830591D01*
X139384728Y-110198282D01*
X139384727Y-110198282D01*
X139345380Y-110252439D01*
X139248904Y-110441782D01*
X139183242Y-110643869D01*
X139183242Y-110643872D01*
X139150000Y-110853753D01*
X139150000Y-111066246D01*
X139183242Y-111276127D01*
X139183242Y-111276130D01*
X139248904Y-111478217D01*
X139345375Y-111667550D01*
X139384728Y-111721716D01*
X140017037Y-111089408D01*
X140034075Y-111152993D01*
X140099901Y-111267007D01*
X140192993Y-111360099D01*
X140307007Y-111425925D01*
X140370590Y-111442962D01*
X139738282Y-112075269D01*
X139738282Y-112075270D01*
X139792452Y-112114626D01*
X139792451Y-112114626D01*
X139801495Y-112119234D01*
X139852292Y-112167208D01*
X139869087Y-112235029D01*
X139846550Y-112301164D01*
X139801499Y-112340202D01*
X139792182Y-112344949D01*
X139620213Y-112469890D01*
X139469890Y-112620213D01*
X139344951Y-112792179D01*
X139248444Y-112981585D01*
X139182753Y-113183760D01*
X139149500Y-113393713D01*
X139149500Y-113606286D01*
X139182753Y-113816239D01*
X139182753Y-113816241D01*
X139182754Y-113816243D01*
X139242460Y-113999999D01*
X139248444Y-114018414D01*
X139344951Y-114207820D01*
X139469890Y-114379786D01*
X139620213Y-114530109D01*
X139792182Y-114655050D01*
X139800946Y-114659516D01*
X139851742Y-114707491D01*
X139868536Y-114775312D01*
X139845998Y-114841447D01*
X139800946Y-114880484D01*
X139792182Y-114884949D01*
X139620213Y-115009890D01*
X139469890Y-115160213D01*
X139344951Y-115332179D01*
X139248444Y-115521585D01*
X139182753Y-115723760D01*
X139149500Y-115933713D01*
X139149500Y-116146287D01*
X139158007Y-116200000D01*
X139177196Y-116321155D01*
X139182754Y-116356243D01*
X139244285Y-116545616D01*
X139248444Y-116558414D01*
X139344951Y-116747820D01*
X139469890Y-116919786D01*
X139620213Y-117070109D01*
X139792179Y-117195048D01*
X139792181Y-117195049D01*
X139792184Y-117195051D01*
X139981588Y-117291557D01*
X140183757Y-117357246D01*
X140393713Y-117390500D01*
X140393714Y-117390500D01*
X140606286Y-117390500D01*
X140606287Y-117390500D01*
X140816243Y-117357246D01*
X141018412Y-117291557D01*
X141207816Y-117195051D01*
X141274716Y-117146446D01*
X141379786Y-117070109D01*
X141379788Y-117070106D01*
X141379792Y-117070104D01*
X141392214Y-117057682D01*
X165200000Y-117057682D01*
X165200000Y-117262317D01*
X165232009Y-117464417D01*
X165295244Y-117659031D01*
X165388141Y-117841350D01*
X165388147Y-117841359D01*
X165420523Y-117885921D01*
X165420524Y-117885922D01*
X166100000Y-117206446D01*
X166100000Y-117212661D01*
X166127259Y-117314394D01*
X166179920Y-117405606D01*
X166254394Y-117480080D01*
X166345606Y-117532741D01*
X166447339Y-117560000D01*
X166453553Y-117560000D01*
X165774076Y-118239474D01*
X165818650Y-118271859D01*
X166000968Y-118364755D01*
X166195582Y-118427990D01*
X166397683Y-118460000D01*
X166602317Y-118460000D01*
X166804417Y-118427990D01*
X166999031Y-118364755D01*
X167181349Y-118271859D01*
X167225921Y-118239474D01*
X166546447Y-117560000D01*
X166552661Y-117560000D01*
X166654394Y-117532741D01*
X166745606Y-117480080D01*
X166820080Y-117405606D01*
X166872741Y-117314394D01*
X166900000Y-117212661D01*
X166900000Y-117206448D01*
X167579474Y-117885922D01*
X167579474Y-117885921D01*
X167611859Y-117841349D01*
X167704755Y-117659031D01*
X167767990Y-117464417D01*
X167800000Y-117262317D01*
X167800000Y-117057682D01*
X167767990Y-116855582D01*
X167704755Y-116660968D01*
X167611859Y-116478650D01*
X167579474Y-116434077D01*
X167579474Y-116434076D01*
X166900000Y-117113551D01*
X166900000Y-117107339D01*
X166872741Y-117005606D01*
X166820080Y-116914394D01*
X166745606Y-116839920D01*
X166654394Y-116787259D01*
X166552661Y-116760000D01*
X166546446Y-116760000D01*
X167046465Y-116259982D01*
X174899500Y-116259982D01*
X174899500Y-118060017D01*
X174910000Y-118162796D01*
X174930918Y-118225921D01*
X174965186Y-118329335D01*
X175057288Y-118478656D01*
X175181344Y-118602712D01*
X175330665Y-118694814D01*
X175497202Y-118749999D01*
X175599990Y-118760500D01*
X175599995Y-118760500D01*
X177400005Y-118760500D01*
X177400010Y-118760500D01*
X177502798Y-118749999D01*
X177669335Y-118694814D01*
X177818656Y-118602712D01*
X177942712Y-118478656D01*
X178034814Y-118329335D01*
X178089999Y-118162798D01*
X178100500Y-118060010D01*
X178100500Y-116259990D01*
X178089999Y-116157202D01*
X178034814Y-115990665D01*
X177942712Y-115841344D01*
X177818656Y-115717288D01*
X177669335Y-115625186D01*
X177502798Y-115570001D01*
X177502796Y-115570000D01*
X177400017Y-115559500D01*
X177400010Y-115559500D01*
X175599990Y-115559500D01*
X175599982Y-115559500D01*
X175497203Y-115570000D01*
X175497202Y-115570001D01*
X175414669Y-115597349D01*
X175330667Y-115625185D01*
X175330662Y-115625187D01*
X175181342Y-115717289D01*
X175057289Y-115841342D01*
X174965187Y-115990662D01*
X174965186Y-115990665D01*
X174910001Y-116157202D01*
X174910001Y-116157203D01*
X174910000Y-116157203D01*
X174899500Y-116259982D01*
X167046465Y-116259982D01*
X167137295Y-116169152D01*
X167225922Y-116080524D01*
X167225921Y-116080523D01*
X167181359Y-116048147D01*
X167181350Y-116048141D01*
X166999031Y-115955244D01*
X166804417Y-115892009D01*
X166602317Y-115860000D01*
X166397683Y-115860000D01*
X166195582Y-115892009D01*
X166000968Y-115955244D01*
X165818644Y-116048143D01*
X165774077Y-116080523D01*
X165774077Y-116080524D01*
X166453554Y-116760000D01*
X166447339Y-116760000D01*
X166345606Y-116787259D01*
X166254394Y-116839920D01*
X166179920Y-116914394D01*
X166127259Y-117005606D01*
X166100000Y-117107339D01*
X166100000Y-117113553D01*
X165420524Y-116434077D01*
X165420523Y-116434077D01*
X165388143Y-116478644D01*
X165295244Y-116660968D01*
X165232009Y-116855582D01*
X165200000Y-117057682D01*
X141392214Y-117057682D01*
X141530104Y-116919792D01*
X141530106Y-116919788D01*
X141530109Y-116919786D01*
X141655048Y-116747820D01*
X141655047Y-116747820D01*
X141655051Y-116747816D01*
X141751557Y-116558412D01*
X141817246Y-116356243D01*
X141850500Y-116146287D01*
X141850500Y-115933713D01*
X141817246Y-115723757D01*
X141751557Y-115521588D01*
X141655051Y-115332184D01*
X141655049Y-115332181D01*
X141655048Y-115332179D01*
X141530109Y-115160213D01*
X141379786Y-115009890D01*
X141207820Y-114884951D01*
X141207115Y-114884591D01*
X141199054Y-114880485D01*
X141148259Y-114832512D01*
X141131463Y-114764692D01*
X141153999Y-114698556D01*
X141199054Y-114659515D01*
X141207816Y-114655051D01*
X141241041Y-114630912D01*
X141379786Y-114530109D01*
X141379788Y-114530106D01*
X141379792Y-114530104D01*
X141530104Y-114379792D01*
X141530106Y-114379788D01*
X141530109Y-114379786D01*
X141655048Y-114207820D01*
X141655047Y-114207820D01*
X141655051Y-114207816D01*
X141751557Y-114018412D01*
X141790785Y-113897682D01*
X147700000Y-113897682D01*
X147700000Y-114102317D01*
X147732009Y-114304417D01*
X147795244Y-114499031D01*
X147888141Y-114681350D01*
X147888147Y-114681359D01*
X147920523Y-114725921D01*
X147920524Y-114725922D01*
X148600000Y-114046446D01*
X148600000Y-114052661D01*
X148627259Y-114154394D01*
X148679920Y-114245606D01*
X148754394Y-114320080D01*
X148845606Y-114372741D01*
X148947339Y-114400000D01*
X148953553Y-114400000D01*
X148274076Y-115079474D01*
X148318650Y-115111859D01*
X148500968Y-115204755D01*
X148695582Y-115267990D01*
X148897683Y-115300000D01*
X149102317Y-115300000D01*
X149304417Y-115267990D01*
X149499031Y-115204755D01*
X149681349Y-115111859D01*
X149725921Y-115079474D01*
X149046447Y-114400000D01*
X149052661Y-114400000D01*
X149154394Y-114372741D01*
X149245606Y-114320080D01*
X149320080Y-114245606D01*
X149372741Y-114154394D01*
X149400000Y-114052661D01*
X149400000Y-114046448D01*
X150079474Y-114725922D01*
X150079474Y-114725921D01*
X150111859Y-114681349D01*
X150204755Y-114499031D01*
X150267990Y-114304417D01*
X150300000Y-114102317D01*
X150300000Y-113897682D01*
X150267990Y-113695582D01*
X150204755Y-113500968D01*
X150111859Y-113318650D01*
X150079474Y-113274077D01*
X150079474Y-113274076D01*
X149400000Y-113953551D01*
X149400000Y-113947339D01*
X149372741Y-113845606D01*
X149320080Y-113754394D01*
X149245606Y-113679920D01*
X149154394Y-113627259D01*
X149052661Y-113600000D01*
X149046446Y-113600000D01*
X149725922Y-112920524D01*
X149725921Y-112920523D01*
X149681359Y-112888147D01*
X149681350Y-112888141D01*
X149499031Y-112795244D01*
X149304417Y-112732009D01*
X149102317Y-112700000D01*
X148897683Y-112700000D01*
X148695582Y-112732009D01*
X148500968Y-112795244D01*
X148318644Y-112888143D01*
X148274077Y-112920523D01*
X148274077Y-112920524D01*
X148953554Y-113600000D01*
X148947339Y-113600000D01*
X148845606Y-113627259D01*
X148754394Y-113679920D01*
X148679920Y-113754394D01*
X148627259Y-113845606D01*
X148600000Y-113947339D01*
X148600000Y-113953553D01*
X147920524Y-113274077D01*
X147920523Y-113274077D01*
X147888143Y-113318644D01*
X147795244Y-113500968D01*
X147732009Y-113695582D01*
X147700000Y-113897682D01*
X141790785Y-113897682D01*
X141817246Y-113816243D01*
X141850500Y-113606287D01*
X141850500Y-113393713D01*
X141817246Y-113183757D01*
X141751557Y-112981588D01*
X141655051Y-112792184D01*
X141655049Y-112792181D01*
X141655048Y-112792179D01*
X141530109Y-112620213D01*
X141379786Y-112469890D01*
X141207817Y-112344949D01*
X141198504Y-112340204D01*
X141147707Y-112292230D01*
X141130912Y-112224409D01*
X141153449Y-112158274D01*
X141198507Y-112119232D01*
X141207555Y-112114622D01*
X141261716Y-112075270D01*
X141261717Y-112075270D01*
X140629408Y-111442962D01*
X140692993Y-111425925D01*
X140807007Y-111360099D01*
X140900099Y-111267007D01*
X140965925Y-111152993D01*
X140982962Y-111089409D01*
X141615270Y-111721717D01*
X141615270Y-111721716D01*
X141654622Y-111667554D01*
X141751095Y-111478217D01*
X141816757Y-111276130D01*
X141816757Y-111276127D01*
X141850000Y-111066246D01*
X141850000Y-110853753D01*
X141816757Y-110643872D01*
X141816757Y-110643869D01*
X141751095Y-110441782D01*
X141654624Y-110252449D01*
X141615270Y-110198282D01*
X141615269Y-110198282D01*
X140982962Y-110830590D01*
X140965925Y-110767007D01*
X140900099Y-110652993D01*
X140807007Y-110559901D01*
X140692993Y-110494075D01*
X140629409Y-110477037D01*
X141299627Y-109806818D01*
X141360950Y-109773333D01*
X141387307Y-109770499D01*
X141397872Y-109770499D01*
X141457483Y-109764091D01*
X141592331Y-109713796D01*
X141707546Y-109627546D01*
X141793796Y-109512331D01*
X141844091Y-109377483D01*
X141850500Y-109317873D01*
X141850500Y-108897648D01*
X147699500Y-108897648D01*
X147699500Y-109102351D01*
X147731522Y-109304534D01*
X147794781Y-109499223D01*
X147858691Y-109624653D01*
X147887585Y-109681359D01*
X147887715Y-109681613D01*
X148008028Y-109847213D01*
X148152786Y-109991971D01*
X148273226Y-110079474D01*
X148318390Y-110112287D01*
X148434607Y-110171503D01*
X148500776Y-110205218D01*
X148500778Y-110205218D01*
X148500781Y-110205220D01*
X148605137Y-110239127D01*
X148695465Y-110268477D01*
X148744769Y-110276286D01*
X148897648Y-110300500D01*
X148897649Y-110300500D01*
X149102351Y-110300500D01*
X149102352Y-110300500D01*
X149304534Y-110268477D01*
X149499219Y-110205220D01*
X149681610Y-110112287D01*
X149774590Y-110044732D01*
X149847213Y-109991971D01*
X149847215Y-109991968D01*
X149847219Y-109991966D01*
X149991966Y-109847219D01*
X149991968Y-109847215D01*
X149991971Y-109847213D01*
X150047707Y-109770498D01*
X150112287Y-109681610D01*
X150205220Y-109499219D01*
X150268477Y-109304534D01*
X150300500Y-109102352D01*
X150300500Y-108897648D01*
X150288868Y-108824206D01*
X150268477Y-108695465D01*
X150225611Y-108563537D01*
X150205220Y-108500781D01*
X150205218Y-108500778D01*
X150205218Y-108500776D01*
X150163888Y-108419662D01*
X150112287Y-108318390D01*
X150080092Y-108274077D01*
X149991971Y-108152786D01*
X149847213Y-108008028D01*
X149681613Y-107887715D01*
X149681612Y-107887714D01*
X149681610Y-107887713D01*
X149624653Y-107858691D01*
X149499223Y-107794781D01*
X149304534Y-107731522D01*
X149129995Y-107703878D01*
X149102352Y-107699500D01*
X148897648Y-107699500D01*
X148873329Y-107703351D01*
X148695465Y-107731522D01*
X148500776Y-107794781D01*
X148318386Y-107887715D01*
X148152786Y-108008028D01*
X148008028Y-108152786D01*
X147887715Y-108318386D01*
X147794781Y-108500776D01*
X147731522Y-108695465D01*
X147699500Y-108897648D01*
X141850500Y-108897648D01*
X141850499Y-108419662D01*
X141850499Y-107522129D01*
X141850498Y-107522123D01*
X141850497Y-107522116D01*
X141844091Y-107462517D01*
X141793796Y-107327669D01*
X141793795Y-107327668D01*
X141793793Y-107327664D01*
X141707547Y-107212455D01*
X141707544Y-107212452D01*
X141592335Y-107126206D01*
X141592328Y-107126202D01*
X141457482Y-107075908D01*
X141457483Y-107075908D01*
X141397883Y-107069501D01*
X141397881Y-107069500D01*
X141397873Y-107069500D01*
X141397864Y-107069500D01*
X139602129Y-107069500D01*
X139602123Y-107069501D01*
X139542516Y-107075908D01*
X139407671Y-107126202D01*
X139407664Y-107126206D01*
X139292455Y-107212452D01*
X139292452Y-107212455D01*
X139206206Y-107327664D01*
X139206202Y-107327671D01*
X139155908Y-107462517D01*
X139149501Y-107522116D01*
X139149501Y-107522123D01*
X139149500Y-107522135D01*
X124643454Y-107522135D01*
X124621789Y-107489711D01*
X124621787Y-107489709D01*
X124621785Y-107489706D01*
X124029727Y-106897648D01*
X165199500Y-106897648D01*
X165199500Y-107102351D01*
X165231522Y-107304534D01*
X165294781Y-107499223D01*
X165337212Y-107582497D01*
X165382326Y-107671038D01*
X165387715Y-107681613D01*
X165508028Y-107847213D01*
X165652786Y-107991971D01*
X165772362Y-108078846D01*
X165818390Y-108112287D01*
X165932219Y-108170286D01*
X166000776Y-108205218D01*
X166000778Y-108205218D01*
X166000781Y-108205220D01*
X166087784Y-108233489D01*
X166195465Y-108268477D01*
X166230822Y-108274077D01*
X166397648Y-108300500D01*
X166397649Y-108300500D01*
X166602351Y-108300500D01*
X166602352Y-108300500D01*
X166804534Y-108268477D01*
X166999219Y-108205220D01*
X167181610Y-108112287D01*
X167306413Y-108021613D01*
X167347213Y-107991971D01*
X167347215Y-107991968D01*
X167347219Y-107991966D01*
X167491966Y-107847219D01*
X167491968Y-107847215D01*
X167491971Y-107847213D01*
X167584709Y-107719568D01*
X167612287Y-107681610D01*
X167705220Y-107499219D01*
X167768477Y-107304534D01*
X167800500Y-107102352D01*
X167800500Y-106897648D01*
X167796760Y-106874038D01*
X174899500Y-106874038D01*
X174899500Y-107125962D01*
X174925587Y-107290668D01*
X174938910Y-107374785D01*
X175016760Y-107614383D01*
X175070353Y-107719563D01*
X175121273Y-107819500D01*
X175131132Y-107838848D01*
X175279201Y-108042649D01*
X175279205Y-108042654D01*
X175457345Y-108220794D01*
X175457350Y-108220798D01*
X175610361Y-108331966D01*
X175661155Y-108368870D01*
X175804184Y-108441747D01*
X175885616Y-108483239D01*
X175885618Y-108483239D01*
X175885621Y-108483241D01*
X176125215Y-108561090D01*
X176374038Y-108600500D01*
X176374039Y-108600500D01*
X176625961Y-108600500D01*
X176625962Y-108600500D01*
X176874785Y-108561090D01*
X177114379Y-108483241D01*
X177338845Y-108368870D01*
X177542656Y-108220793D01*
X177720793Y-108042656D01*
X177868870Y-107838845D01*
X177983241Y-107614379D01*
X178061090Y-107374785D01*
X178100500Y-107125962D01*
X178100500Y-106874038D01*
X178061090Y-106625215D01*
X177983241Y-106385621D01*
X177983239Y-106385618D01*
X177983239Y-106385616D01*
X177941747Y-106304184D01*
X177868870Y-106161155D01*
X177780483Y-106039500D01*
X177720798Y-105957350D01*
X177720794Y-105957345D01*
X177542654Y-105779205D01*
X177542649Y-105779201D01*
X177338848Y-105631132D01*
X177338847Y-105631131D01*
X177338845Y-105631130D01*
X177268747Y-105595413D01*
X177114383Y-105516760D01*
X176874785Y-105438910D01*
X176625962Y-105399500D01*
X176374038Y-105399500D01*
X176307738Y-105410001D01*
X176125214Y-105438910D01*
X175885616Y-105516760D01*
X175661151Y-105631132D01*
X175457350Y-105779201D01*
X175457345Y-105779205D01*
X175279205Y-105957345D01*
X175279201Y-105957350D01*
X175131132Y-106161151D01*
X175016760Y-106385616D01*
X174938910Y-106625214D01*
X174927783Y-106695465D01*
X174899500Y-106874038D01*
X167796760Y-106874038D01*
X167768477Y-106695466D01*
X167705220Y-106500781D01*
X167705218Y-106500778D01*
X167705218Y-106500776D01*
X167627388Y-106348028D01*
X167612287Y-106318390D01*
X167604556Y-106307749D01*
X167491971Y-106152786D01*
X167347213Y-106008028D01*
X167181613Y-105887715D01*
X167181612Y-105887714D01*
X167181610Y-105887713D01*
X167124653Y-105858691D01*
X166999223Y-105794781D01*
X166804534Y-105731522D01*
X166629995Y-105703878D01*
X166602352Y-105699500D01*
X166397648Y-105699500D01*
X166373329Y-105703351D01*
X166195465Y-105731522D01*
X166000776Y-105794781D01*
X165818386Y-105887715D01*
X165652786Y-106008028D01*
X165508028Y-106152786D01*
X165387715Y-106318386D01*
X165294781Y-106500776D01*
X165231522Y-106695465D01*
X165199500Y-106897648D01*
X124029727Y-106897648D01*
X122836819Y-105704740D01*
X122803334Y-105643417D01*
X122800500Y-105617059D01*
X122800500Y-104700932D01*
X122820185Y-104633893D01*
X122872989Y-104588138D01*
X122942147Y-104578194D01*
X123005703Y-104607219D01*
X123021350Y-104624268D01*
X123022116Y-104624328D01*
X123630000Y-104016445D01*
X123630000Y-104022661D01*
X123657259Y-104124394D01*
X123709920Y-104215606D01*
X123784394Y-104290080D01*
X123875606Y-104342741D01*
X123977339Y-104370000D01*
X123983554Y-104370000D01*
X123375669Y-104977882D01*
X123375670Y-104977883D01*
X123401059Y-104996329D01*
X123569362Y-105082085D01*
X123748997Y-105140451D01*
X123935553Y-105170000D01*
X124124447Y-105170000D01*
X124311002Y-105140451D01*
X124490637Y-105082085D01*
X124658937Y-104996331D01*
X124684328Y-104977883D01*
X124684328Y-104977882D01*
X124076447Y-104370000D01*
X124082661Y-104370000D01*
X124184394Y-104342741D01*
X124275606Y-104290080D01*
X124350080Y-104215606D01*
X124402741Y-104124394D01*
X124430000Y-104022661D01*
X124430000Y-104016446D01*
X125037882Y-104624328D01*
X125037883Y-104624328D01*
X125056331Y-104598937D01*
X125142086Y-104430635D01*
X125181806Y-104308389D01*
X125221243Y-104250713D01*
X125285601Y-104223514D01*
X125354448Y-104235428D01*
X125405924Y-104282672D01*
X125417668Y-104308387D01*
X125457454Y-104430836D01*
X125502980Y-104520185D01*
X125543240Y-104599199D01*
X125654310Y-104752073D01*
X125787927Y-104885690D01*
X125940801Y-104996760D01*
X126020347Y-105037290D01*
X126109163Y-105082545D01*
X126109165Y-105082545D01*
X126109168Y-105082547D01*
X126205497Y-105113846D01*
X126288881Y-105140940D01*
X126475514Y-105170500D01*
X126475519Y-105170500D01*
X126664486Y-105170500D01*
X126851118Y-105140940D01*
X126852623Y-105140451D01*
X127030832Y-105082547D01*
X127199199Y-104996760D01*
X127352073Y-104885690D01*
X127485690Y-104752073D01*
X127596760Y-104599199D01*
X127682547Y-104430832D01*
X127722069Y-104309195D01*
X127761507Y-104251521D01*
X127825866Y-104224323D01*
X127894712Y-104236238D01*
X127946188Y-104283482D01*
X127957931Y-104309196D01*
X127997454Y-104430836D01*
X128042980Y-104520185D01*
X128083240Y-104599199D01*
X128194310Y-104752073D01*
X128327927Y-104885690D01*
X128480801Y-104996760D01*
X128560347Y-105037290D01*
X128649163Y-105082545D01*
X128649165Y-105082545D01*
X128649168Y-105082547D01*
X128745497Y-105113846D01*
X128828881Y-105140940D01*
X129015514Y-105170500D01*
X129015519Y-105170500D01*
X129204486Y-105170500D01*
X129391118Y-105140940D01*
X129392623Y-105140451D01*
X129570832Y-105082547D01*
X129739199Y-104996760D01*
X129892073Y-104885690D01*
X130025690Y-104752073D01*
X130136760Y-104599199D01*
X130222547Y-104430832D01*
X130262069Y-104309195D01*
X130301507Y-104251521D01*
X130365866Y-104224323D01*
X130434712Y-104236238D01*
X130486188Y-104283482D01*
X130497931Y-104309196D01*
X130537454Y-104430836D01*
X130582980Y-104520185D01*
X130623240Y-104599199D01*
X130734310Y-104752073D01*
X130867927Y-104885690D01*
X131020801Y-104996760D01*
X131100347Y-105037290D01*
X131189163Y-105082545D01*
X131189165Y-105082545D01*
X131189168Y-105082547D01*
X131285497Y-105113846D01*
X131368881Y-105140940D01*
X131555514Y-105170500D01*
X131555519Y-105170500D01*
X131744486Y-105170500D01*
X131931118Y-105140940D01*
X131932623Y-105140451D01*
X132110832Y-105082547D01*
X132279199Y-104996760D01*
X132432073Y-104885690D01*
X132565690Y-104752073D01*
X132676760Y-104599199D01*
X132762547Y-104430832D01*
X132802069Y-104309195D01*
X132841507Y-104251521D01*
X132905866Y-104224323D01*
X132974712Y-104236238D01*
X133026188Y-104283482D01*
X133037931Y-104309196D01*
X133077454Y-104430836D01*
X133122980Y-104520185D01*
X133163240Y-104599199D01*
X133274310Y-104752073D01*
X133407927Y-104885690D01*
X133560801Y-104996760D01*
X133640347Y-105037290D01*
X133729163Y-105082545D01*
X133729165Y-105082545D01*
X133729168Y-105082547D01*
X133825497Y-105113846D01*
X133908881Y-105140940D01*
X134095514Y-105170500D01*
X134095519Y-105170500D01*
X134284486Y-105170500D01*
X134471118Y-105140940D01*
X134472623Y-105140451D01*
X134650832Y-105082547D01*
X134819199Y-104996760D01*
X134972073Y-104885690D01*
X135105690Y-104752073D01*
X135216760Y-104599199D01*
X135302547Y-104430832D01*
X135342069Y-104309195D01*
X135381507Y-104251521D01*
X135445866Y-104224323D01*
X135514712Y-104236238D01*
X135566188Y-104283482D01*
X135577931Y-104309196D01*
X135617454Y-104430836D01*
X135662980Y-104520185D01*
X135703240Y-104599199D01*
X135814310Y-104752073D01*
X135947927Y-104885690D01*
X136100801Y-104996760D01*
X136180347Y-105037290D01*
X136269163Y-105082545D01*
X136269165Y-105082545D01*
X136269168Y-105082547D01*
X136365497Y-105113846D01*
X136448881Y-105140940D01*
X136635514Y-105170500D01*
X136635519Y-105170500D01*
X136824486Y-105170500D01*
X137011118Y-105140940D01*
X137012623Y-105140451D01*
X137190832Y-105082547D01*
X137359199Y-104996760D01*
X137512073Y-104885690D01*
X137645690Y-104752073D01*
X137756760Y-104599199D01*
X137842547Y-104430832D01*
X137882069Y-104309195D01*
X137921507Y-104251521D01*
X137985866Y-104224323D01*
X138054712Y-104236238D01*
X138106188Y-104283482D01*
X138117931Y-104309196D01*
X138157454Y-104430836D01*
X138202980Y-104520185D01*
X138243240Y-104599199D01*
X138354310Y-104752073D01*
X138487927Y-104885690D01*
X138640801Y-104996760D01*
X138720347Y-105037290D01*
X138809163Y-105082545D01*
X138809165Y-105082545D01*
X138809168Y-105082547D01*
X138905497Y-105113846D01*
X138988881Y-105140940D01*
X139175514Y-105170500D01*
X139175519Y-105170500D01*
X139364486Y-105170500D01*
X139551118Y-105140940D01*
X139552623Y-105140451D01*
X139730832Y-105082547D01*
X139899199Y-104996760D01*
X140052073Y-104885690D01*
X140185690Y-104752073D01*
X140296760Y-104599199D01*
X140382547Y-104430832D01*
X140422069Y-104309195D01*
X140461507Y-104251521D01*
X140525866Y-104224323D01*
X140594712Y-104236238D01*
X140646188Y-104283482D01*
X140657931Y-104309196D01*
X140697454Y-104430836D01*
X140742980Y-104520185D01*
X140783240Y-104599199D01*
X140894310Y-104752073D01*
X141027927Y-104885690D01*
X141180801Y-104996760D01*
X141260347Y-105037290D01*
X141349163Y-105082545D01*
X141349165Y-105082545D01*
X141349168Y-105082547D01*
X141445497Y-105113846D01*
X141528881Y-105140940D01*
X141715514Y-105170500D01*
X141715519Y-105170500D01*
X141904486Y-105170500D01*
X142091118Y-105140940D01*
X142092623Y-105140451D01*
X142270832Y-105082547D01*
X142439199Y-104996760D01*
X142592073Y-104885690D01*
X142725690Y-104752073D01*
X142836760Y-104599199D01*
X142922547Y-104430832D01*
X142962069Y-104309195D01*
X143001507Y-104251521D01*
X143065866Y-104224323D01*
X143134712Y-104236238D01*
X143186188Y-104283482D01*
X143197931Y-104309196D01*
X143237454Y-104430836D01*
X143282980Y-104520185D01*
X143323240Y-104599199D01*
X143434310Y-104752073D01*
X143567927Y-104885690D01*
X143720801Y-104996760D01*
X143800347Y-105037290D01*
X143889163Y-105082545D01*
X143889165Y-105082545D01*
X143889168Y-105082547D01*
X143985497Y-105113846D01*
X144068881Y-105140940D01*
X144255514Y-105170500D01*
X144255519Y-105170500D01*
X144444486Y-105170500D01*
X144631118Y-105140940D01*
X144632623Y-105140451D01*
X144810832Y-105082547D01*
X144979199Y-104996760D01*
X145132073Y-104885690D01*
X145265690Y-104752073D01*
X145376760Y-104599199D01*
X145462547Y-104430832D01*
X145502069Y-104309195D01*
X145541507Y-104251521D01*
X145605866Y-104224323D01*
X145674712Y-104236238D01*
X145726188Y-104283482D01*
X145737931Y-104309196D01*
X145777454Y-104430836D01*
X145822980Y-104520185D01*
X145863240Y-104599199D01*
X145974310Y-104752073D01*
X146107927Y-104885690D01*
X146260801Y-104996760D01*
X146340347Y-105037290D01*
X146429163Y-105082545D01*
X146429165Y-105082545D01*
X146429168Y-105082547D01*
X146525497Y-105113846D01*
X146608881Y-105140940D01*
X146795514Y-105170500D01*
X146795519Y-105170500D01*
X146984486Y-105170500D01*
X147171118Y-105140940D01*
X147172623Y-105140451D01*
X147350832Y-105082547D01*
X147519199Y-104996760D01*
X147672073Y-104885690D01*
X147805690Y-104752073D01*
X147916760Y-104599199D01*
X148002547Y-104430832D01*
X148060940Y-104251118D01*
X148065312Y-104223514D01*
X148090500Y-104064486D01*
X148090500Y-103875513D01*
X148060940Y-103688881D01*
X148002545Y-103509163D01*
X147926846Y-103360596D01*
X147916760Y-103340801D01*
X147805690Y-103187927D01*
X147672073Y-103054310D01*
X147519199Y-102943240D01*
X147350836Y-102857454D01*
X147276472Y-102833291D01*
X147229195Y-102817930D01*
X147171521Y-102778493D01*
X147144323Y-102714134D01*
X147156238Y-102645288D01*
X147203482Y-102593812D01*
X147229194Y-102582069D01*
X147350832Y-102542547D01*
X147519199Y-102456760D01*
X147672073Y-102345690D01*
X147805690Y-102212073D01*
X147916760Y-102059199D01*
X148002547Y-101890832D01*
X148060940Y-101711118D01*
X148065184Y-101684323D01*
X148090500Y-101524486D01*
X148090500Y-101335513D01*
X148060940Y-101148881D01*
X148002545Y-100969163D01*
X147916759Y-100800800D01*
X147906834Y-100787139D01*
X147805690Y-100647927D01*
X147672073Y-100514310D01*
X147519199Y-100403240D01*
X147350836Y-100317454D01*
X147171118Y-100259059D01*
X146984486Y-100229500D01*
X146984481Y-100229500D01*
X146795519Y-100229500D01*
X146795514Y-100229500D01*
X146608881Y-100259059D01*
X146429163Y-100317454D01*
X146260800Y-100403240D01*
X146173579Y-100466610D01*
X146107927Y-100514310D01*
X146107925Y-100514312D01*
X146107924Y-100514312D01*
X145974312Y-100647924D01*
X145974312Y-100647925D01*
X145974310Y-100647927D01*
X145926610Y-100713579D01*
X145863240Y-100800800D01*
X145777454Y-100969163D01*
X145737931Y-101090803D01*
X145698493Y-101148478D01*
X145634134Y-101175676D01*
X145565288Y-101163761D01*
X145513812Y-101116516D01*
X145502069Y-101090803D01*
X145462545Y-100969163D01*
X145376759Y-100800800D01*
X145366834Y-100787139D01*
X145265690Y-100647927D01*
X145132073Y-100514310D01*
X144979199Y-100403240D01*
X144810836Y-100317454D01*
X144631118Y-100259059D01*
X144444486Y-100229500D01*
X144444481Y-100229500D01*
X144255519Y-100229500D01*
X144255514Y-100229500D01*
X144068881Y-100259059D01*
X143889163Y-100317454D01*
X143720800Y-100403240D01*
X143633579Y-100466610D01*
X143567927Y-100514310D01*
X143567925Y-100514312D01*
X143567924Y-100514312D01*
X143434312Y-100647924D01*
X143434312Y-100647925D01*
X143434310Y-100647927D01*
X143386610Y-100713579D01*
X143323240Y-100800800D01*
X143237454Y-100969163D01*
X143197931Y-101090803D01*
X143158493Y-101148478D01*
X143094134Y-101175676D01*
X143025288Y-101163761D01*
X142973812Y-101116516D01*
X142962069Y-101090803D01*
X142922545Y-100969163D01*
X142836759Y-100800800D01*
X142826834Y-100787139D01*
X142725690Y-100647927D01*
X142592073Y-100514310D01*
X142439199Y-100403240D01*
X142270836Y-100317454D01*
X142091118Y-100259059D01*
X141904486Y-100229500D01*
X141904481Y-100229500D01*
X141715519Y-100229500D01*
X141715514Y-100229500D01*
X141528881Y-100259059D01*
X141349163Y-100317454D01*
X141180800Y-100403240D01*
X141093579Y-100466610D01*
X141027927Y-100514310D01*
X141027925Y-100514312D01*
X141027924Y-100514312D01*
X140894312Y-100647924D01*
X140894312Y-100647925D01*
X140894310Y-100647927D01*
X140846610Y-100713579D01*
X140783240Y-100800800D01*
X140697454Y-100969163D01*
X140657931Y-101090803D01*
X140618493Y-101148478D01*
X140554134Y-101175676D01*
X140485288Y-101163761D01*
X140433812Y-101116516D01*
X140422069Y-101090803D01*
X140382545Y-100969163D01*
X140296759Y-100800800D01*
X140286834Y-100787139D01*
X140185690Y-100647927D01*
X140052073Y-100514310D01*
X139899199Y-100403240D01*
X139730836Y-100317454D01*
X139551118Y-100259059D01*
X139364486Y-100229500D01*
X139364481Y-100229500D01*
X139175519Y-100229500D01*
X139175514Y-100229500D01*
X138988881Y-100259059D01*
X138809163Y-100317454D01*
X138640800Y-100403240D01*
X138553579Y-100466610D01*
X138487927Y-100514310D01*
X138487925Y-100514312D01*
X138487924Y-100514312D01*
X138354312Y-100647924D01*
X138354312Y-100647925D01*
X138354310Y-100647927D01*
X138306610Y-100713579D01*
X138243240Y-100800800D01*
X138157454Y-100969163D01*
X138117931Y-101090803D01*
X138078493Y-101148478D01*
X138014134Y-101175676D01*
X137945288Y-101163761D01*
X137893812Y-101116516D01*
X137882069Y-101090803D01*
X137842545Y-100969163D01*
X137756759Y-100800800D01*
X137746834Y-100787139D01*
X137645690Y-100647927D01*
X137512073Y-100514310D01*
X137359199Y-100403240D01*
X137190836Y-100317454D01*
X137011118Y-100259059D01*
X136824486Y-100229500D01*
X136824481Y-100229500D01*
X136635519Y-100229500D01*
X136635514Y-100229500D01*
X136448881Y-100259059D01*
X136269163Y-100317454D01*
X136100800Y-100403240D01*
X136013579Y-100466610D01*
X135947927Y-100514310D01*
X135947925Y-100514312D01*
X135947924Y-100514312D01*
X135814312Y-100647924D01*
X135814312Y-100647925D01*
X135814310Y-100647927D01*
X135766610Y-100713579D01*
X135703240Y-100800800D01*
X135617454Y-100969163D01*
X135577931Y-101090803D01*
X135538493Y-101148478D01*
X135474134Y-101175676D01*
X135405288Y-101163761D01*
X135353812Y-101116516D01*
X135342069Y-101090803D01*
X135302545Y-100969163D01*
X135216759Y-100800800D01*
X135206834Y-100787139D01*
X135105690Y-100647927D01*
X134972073Y-100514310D01*
X134819199Y-100403240D01*
X134650836Y-100317454D01*
X134471118Y-100259059D01*
X134284486Y-100229500D01*
X134284481Y-100229500D01*
X134095519Y-100229500D01*
X134095514Y-100229500D01*
X133908881Y-100259059D01*
X133729163Y-100317454D01*
X133560800Y-100403240D01*
X133473579Y-100466610D01*
X133407927Y-100514310D01*
X133407925Y-100514312D01*
X133407924Y-100514312D01*
X133274312Y-100647924D01*
X133274312Y-100647925D01*
X133274310Y-100647927D01*
X133226610Y-100713579D01*
X133163240Y-100800800D01*
X133077454Y-100969163D01*
X133037931Y-101090803D01*
X132998493Y-101148478D01*
X132934134Y-101175676D01*
X132865288Y-101163761D01*
X132813812Y-101116516D01*
X132802069Y-101090803D01*
X132762545Y-100969163D01*
X132676759Y-100800800D01*
X132666834Y-100787139D01*
X132565690Y-100647927D01*
X132432073Y-100514310D01*
X132279199Y-100403240D01*
X132110836Y-100317454D01*
X131931118Y-100259059D01*
X131744486Y-100229500D01*
X131744481Y-100229500D01*
X131555519Y-100229500D01*
X131555514Y-100229500D01*
X131368881Y-100259059D01*
X131189163Y-100317454D01*
X131020800Y-100403240D01*
X130933579Y-100466610D01*
X130867927Y-100514310D01*
X130867925Y-100514312D01*
X130867924Y-100514312D01*
X130734312Y-100647924D01*
X130734312Y-100647925D01*
X130734310Y-100647927D01*
X130686610Y-100713579D01*
X130623240Y-100800800D01*
X130537454Y-100969163D01*
X130497931Y-101090803D01*
X130458493Y-101148478D01*
X130394134Y-101175676D01*
X130325288Y-101163761D01*
X130273812Y-101116516D01*
X130262069Y-101090803D01*
X130222545Y-100969163D01*
X130136759Y-100800800D01*
X130126834Y-100787139D01*
X130025690Y-100647927D01*
X129892073Y-100514310D01*
X129739199Y-100403240D01*
X129570836Y-100317454D01*
X129391118Y-100259059D01*
X129204486Y-100229500D01*
X129204481Y-100229500D01*
X129015519Y-100229500D01*
X129015514Y-100229500D01*
X128828881Y-100259059D01*
X128649163Y-100317454D01*
X128480800Y-100403240D01*
X128393579Y-100466610D01*
X128327927Y-100514310D01*
X128327925Y-100514312D01*
X128327924Y-100514312D01*
X128194312Y-100647924D01*
X128194312Y-100647925D01*
X128194310Y-100647927D01*
X128146610Y-100713579D01*
X128083240Y-100800800D01*
X127997454Y-100969163D01*
X127957931Y-101090803D01*
X127918493Y-101148478D01*
X127854134Y-101175676D01*
X127785288Y-101163761D01*
X127733812Y-101116516D01*
X127722069Y-101090803D01*
X127682545Y-100969163D01*
X127596759Y-100800800D01*
X127586834Y-100787139D01*
X127485690Y-100647927D01*
X127352073Y-100514310D01*
X127199199Y-100403240D01*
X127030836Y-100317454D01*
X126851118Y-100259059D01*
X126664486Y-100229500D01*
X126664481Y-100229500D01*
X126475519Y-100229500D01*
X126475514Y-100229500D01*
X126288881Y-100259059D01*
X126109163Y-100317454D01*
X125940800Y-100403240D01*
X125853579Y-100466610D01*
X125787927Y-100514310D01*
X125787925Y-100514312D01*
X125787924Y-100514312D01*
X125654312Y-100647924D01*
X125654312Y-100647925D01*
X125654310Y-100647927D01*
X125606610Y-100713579D01*
X125543240Y-100800800D01*
X125457454Y-100969163D01*
X125417931Y-101090803D01*
X125378493Y-101148478D01*
X125314134Y-101175676D01*
X125245288Y-101163761D01*
X125193812Y-101116516D01*
X125182069Y-101090803D01*
X125142545Y-100969163D01*
X125056759Y-100800800D01*
X125046834Y-100787139D01*
X124945690Y-100647927D01*
X124812073Y-100514310D01*
X124659199Y-100403240D01*
X124490836Y-100317454D01*
X124311118Y-100259059D01*
X124124486Y-100229500D01*
X124124481Y-100229500D01*
X123935519Y-100229500D01*
X123935514Y-100229500D01*
X123748881Y-100259059D01*
X123569163Y-100317454D01*
X123400800Y-100403240D01*
X123313579Y-100466610D01*
X123247927Y-100514310D01*
X123247925Y-100514312D01*
X123247924Y-100514312D01*
X123114311Y-100647925D01*
X123024818Y-100771101D01*
X122969487Y-100813766D01*
X122899874Y-100819745D01*
X122838079Y-100787139D01*
X122803722Y-100726300D01*
X122800500Y-100698215D01*
X122800500Y-91382940D01*
X122820185Y-91315901D01*
X122836819Y-91295259D01*
X125621786Y-88510292D01*
X125621789Y-88510289D01*
X125709394Y-88379179D01*
X125769738Y-88233497D01*
X125800500Y-88078842D01*
X125800500Y-87921157D01*
X125769738Y-87766503D01*
X125709394Y-87620821D01*
X125688799Y-87589999D01*
X125621789Y-87489711D01*
X125621786Y-87489707D01*
X125510292Y-87378213D01*
X125510288Y-87378210D01*
X125379185Y-87290609D01*
X125379175Y-87290604D01*
X125233497Y-87230262D01*
X125233489Y-87230260D01*
X125078847Y-87199500D01*
X125078843Y-87199500D01*
X124921158Y-87199500D01*
X124921153Y-87199500D01*
X124766510Y-87230260D01*
X124766502Y-87230262D01*
X124620824Y-87290604D01*
X124620814Y-87290609D01*
X124489711Y-87378210D01*
X124489707Y-87378213D01*
X122012181Y-89855740D01*
X121950858Y-89889225D01*
X121881166Y-89884241D01*
X121825233Y-89842369D01*
X121800816Y-89776905D01*
X121800500Y-89768059D01*
X121800500Y-86397682D01*
X165200000Y-86397682D01*
X165200000Y-86602317D01*
X165232009Y-86804417D01*
X165295244Y-86999031D01*
X165388141Y-87181350D01*
X165388147Y-87181359D01*
X165420523Y-87225921D01*
X165420524Y-87225922D01*
X166100000Y-86546446D01*
X166100000Y-86552661D01*
X166127259Y-86654394D01*
X166179920Y-86745606D01*
X166254394Y-86820080D01*
X166345606Y-86872741D01*
X166447339Y-86900000D01*
X166453553Y-86900000D01*
X165774076Y-87579474D01*
X165818650Y-87611859D01*
X166000968Y-87704755D01*
X166195582Y-87767990D01*
X166397683Y-87800000D01*
X166602317Y-87800000D01*
X166804417Y-87767990D01*
X166999031Y-87704755D01*
X167181349Y-87611859D01*
X167225921Y-87579474D01*
X166546447Y-86900000D01*
X166552661Y-86900000D01*
X166654394Y-86872741D01*
X166745606Y-86820080D01*
X166820080Y-86745606D01*
X166872741Y-86654394D01*
X166900000Y-86552661D01*
X166900000Y-86546448D01*
X167579474Y-87225922D01*
X167579474Y-87225921D01*
X167611859Y-87181349D01*
X167704755Y-86999031D01*
X167767990Y-86804417D01*
X167800000Y-86602317D01*
X167800000Y-86397682D01*
X167767990Y-86195582D01*
X167704755Y-86000968D01*
X167611859Y-85818650D01*
X167579474Y-85774077D01*
X167579474Y-85774076D01*
X166900000Y-86453551D01*
X166900000Y-86447339D01*
X166872741Y-86345606D01*
X166820080Y-86254394D01*
X166745606Y-86179920D01*
X166654394Y-86127259D01*
X166552661Y-86100000D01*
X166546446Y-86100000D01*
X167225922Y-85420524D01*
X167225921Y-85420523D01*
X167181359Y-85388147D01*
X167181350Y-85388141D01*
X166999031Y-85295244D01*
X166804417Y-85232009D01*
X166724209Y-85219306D01*
X166602317Y-85200000D01*
X166397683Y-85200000D01*
X166195582Y-85232009D01*
X166000968Y-85295244D01*
X165818644Y-85388143D01*
X165774077Y-85420523D01*
X165774077Y-85420524D01*
X166453554Y-86100000D01*
X166447339Y-86100000D01*
X166345606Y-86127259D01*
X166254394Y-86179920D01*
X166179920Y-86254394D01*
X166127259Y-86345606D01*
X166100000Y-86447339D01*
X166100000Y-86453553D01*
X165420524Y-85774077D01*
X165420523Y-85774077D01*
X165388143Y-85818644D01*
X165295244Y-86000968D01*
X165232009Y-86195582D01*
X165200000Y-86397682D01*
X121800500Y-86397682D01*
X121800500Y-85601155D01*
X121778782Y-85491975D01*
X121778782Y-85491974D01*
X121769738Y-85446510D01*
X121769737Y-85446503D01*
X121758976Y-85420523D01*
X121709397Y-85300827D01*
X121709390Y-85300814D01*
X121621789Y-85169711D01*
X121621786Y-85169707D01*
X121552061Y-85099982D01*
X176899500Y-85099982D01*
X176899500Y-86900017D01*
X176910000Y-87002796D01*
X176965185Y-87169332D01*
X176965186Y-87169335D01*
X177057288Y-87318656D01*
X177181344Y-87442712D01*
X177330665Y-87534814D01*
X177497202Y-87589999D01*
X177599990Y-87600500D01*
X177599995Y-87600500D01*
X179400005Y-87600500D01*
X179400010Y-87600500D01*
X179502798Y-87589999D01*
X179669335Y-87534814D01*
X179818656Y-87442712D01*
X179942712Y-87318656D01*
X180034814Y-87169335D01*
X180089999Y-87002798D01*
X180100500Y-86900010D01*
X180100500Y-85099990D01*
X180089999Y-84997202D01*
X180034814Y-84830665D01*
X179942712Y-84681344D01*
X179818656Y-84557288D01*
X179669335Y-84465186D01*
X179502798Y-84410001D01*
X179502796Y-84410000D01*
X179400017Y-84399500D01*
X179400010Y-84399500D01*
X177599990Y-84399500D01*
X177599982Y-84399500D01*
X177497203Y-84410000D01*
X177497202Y-84410001D01*
X177414669Y-84437349D01*
X177330667Y-84465185D01*
X177330662Y-84465187D01*
X177181342Y-84557289D01*
X177057289Y-84681342D01*
X176965187Y-84830662D01*
X176965186Y-84830665D01*
X176910001Y-84997202D01*
X176910001Y-84997203D01*
X176910000Y-84997203D01*
X176899500Y-85099982D01*
X121552061Y-85099982D01*
X121510292Y-85058213D01*
X121510288Y-85058210D01*
X121379185Y-84970609D01*
X121379172Y-84970602D01*
X121233501Y-84910264D01*
X121233489Y-84910261D01*
X121078845Y-84879500D01*
X121078842Y-84879500D01*
X120921158Y-84879500D01*
X120921155Y-84879500D01*
X120766510Y-84910261D01*
X120766498Y-84910264D01*
X120620827Y-84970602D01*
X120620814Y-84970609D01*
X120489711Y-85058210D01*
X120489707Y-85058213D01*
X120378213Y-85169707D01*
X120378210Y-85169711D01*
X120290609Y-85300814D01*
X120290602Y-85300827D01*
X120230264Y-85446498D01*
X120230261Y-85446510D01*
X120199500Y-85601153D01*
X99017808Y-85601153D01*
X98838848Y-85471132D01*
X98838847Y-85471131D01*
X98838845Y-85471130D01*
X98739523Y-85420523D01*
X98614383Y-85356760D01*
X98374785Y-85278910D01*
X98125962Y-85239500D01*
X97874038Y-85239500D01*
X97749626Y-85259205D01*
X97625214Y-85278910D01*
X97385616Y-85356760D01*
X97161151Y-85471132D01*
X96957350Y-85619201D01*
X96957345Y-85619205D01*
X96779205Y-85797345D01*
X96779201Y-85797350D01*
X96631132Y-86001151D01*
X96516760Y-86225616D01*
X96438910Y-86465214D01*
X96399500Y-86714038D01*
X81839846Y-86714038D01*
X81843924Y-86709332D01*
X81843923Y-86709332D01*
X81843931Y-86709324D01*
X81899677Y-86634856D01*
X82164992Y-86280436D01*
X82164991Y-86280436D01*
X82164995Y-86280432D01*
X82454649Y-85829720D01*
X82711413Y-85359493D01*
X82711416Y-85359485D01*
X82711419Y-85359481D01*
X82933970Y-84872160D01*
X82933969Y-84872160D01*
X82933976Y-84872147D01*
X83121206Y-84370165D01*
X83272148Y-83856105D01*
X83386032Y-83332587D01*
X83462279Y-82802278D01*
X83500500Y-82267881D01*
X83500500Y-81732119D01*
X83462279Y-81197722D01*
X83386032Y-80667413D01*
X83386031Y-80667406D01*
X83272150Y-80143902D01*
X83272147Y-80143892D01*
X83162362Y-79770000D01*
X83121206Y-79629835D01*
X82933976Y-79127853D01*
X82889670Y-79030836D01*
X82711419Y-78640518D01*
X82711415Y-78640511D01*
X82651112Y-78530074D01*
X82621319Y-78475513D01*
X122829500Y-78475513D01*
X122829500Y-78664486D01*
X122859059Y-78851118D01*
X122917454Y-79030836D01*
X123003104Y-79198933D01*
X123003240Y-79199199D01*
X123114310Y-79352073D01*
X123247927Y-79485690D01*
X123400801Y-79596760D01*
X123480347Y-79637290D01*
X123569163Y-79682545D01*
X123569165Y-79682545D01*
X123569168Y-79682547D01*
X123665497Y-79713846D01*
X123748881Y-79740940D01*
X123935514Y-79770500D01*
X123935519Y-79770500D01*
X124124486Y-79770500D01*
X124311118Y-79740940D01*
X124312623Y-79740451D01*
X124490832Y-79682547D01*
X124659199Y-79596760D01*
X124812073Y-79485690D01*
X124945690Y-79352073D01*
X125056760Y-79199199D01*
X125142547Y-79030832D01*
X125182069Y-78909195D01*
X125221507Y-78851521D01*
X125285866Y-78824323D01*
X125354712Y-78836238D01*
X125406188Y-78883482D01*
X125417931Y-78909196D01*
X125457454Y-79030836D01*
X125543104Y-79198933D01*
X125543240Y-79199199D01*
X125654310Y-79352073D01*
X125787927Y-79485690D01*
X125940801Y-79596760D01*
X126020347Y-79637290D01*
X126109163Y-79682545D01*
X126109165Y-79682545D01*
X126109168Y-79682547D01*
X126205497Y-79713846D01*
X126288881Y-79740940D01*
X126475514Y-79770500D01*
X126475519Y-79770500D01*
X126664486Y-79770500D01*
X126851118Y-79740940D01*
X126852623Y-79740451D01*
X127030832Y-79682547D01*
X127199199Y-79596760D01*
X127352073Y-79485690D01*
X127485690Y-79352073D01*
X127596760Y-79199199D01*
X127682547Y-79030832D01*
X127722069Y-78909195D01*
X127761507Y-78851521D01*
X127825866Y-78824323D01*
X127894712Y-78836238D01*
X127946188Y-78883482D01*
X127957931Y-78909196D01*
X127997454Y-79030836D01*
X128083104Y-79198933D01*
X128083240Y-79199199D01*
X128194310Y-79352073D01*
X128327927Y-79485690D01*
X128480801Y-79596760D01*
X128560347Y-79637290D01*
X128649163Y-79682545D01*
X128649165Y-79682545D01*
X128649168Y-79682547D01*
X128745497Y-79713846D01*
X128828881Y-79740940D01*
X129015514Y-79770500D01*
X129015519Y-79770500D01*
X129204486Y-79770500D01*
X129391118Y-79740940D01*
X129392623Y-79740451D01*
X129570832Y-79682547D01*
X129739199Y-79596760D01*
X129892073Y-79485690D01*
X130025690Y-79352073D01*
X130136760Y-79199199D01*
X130222547Y-79030832D01*
X130262069Y-78909195D01*
X130301507Y-78851521D01*
X130365866Y-78824323D01*
X130434712Y-78836238D01*
X130486188Y-78883482D01*
X130497931Y-78909196D01*
X130537454Y-79030836D01*
X130623104Y-79198933D01*
X130623240Y-79199199D01*
X130734310Y-79352073D01*
X130867927Y-79485690D01*
X131020801Y-79596760D01*
X131100347Y-79637290D01*
X131189163Y-79682545D01*
X131189165Y-79682545D01*
X131189168Y-79682547D01*
X131285497Y-79713846D01*
X131368881Y-79740940D01*
X131555514Y-79770500D01*
X131555519Y-79770500D01*
X131744486Y-79770500D01*
X131931118Y-79740940D01*
X131932623Y-79740451D01*
X132110832Y-79682547D01*
X132279199Y-79596760D01*
X132432073Y-79485690D01*
X132565690Y-79352073D01*
X132676760Y-79199199D01*
X132762547Y-79030832D01*
X132802069Y-78909195D01*
X132841507Y-78851521D01*
X132905866Y-78824323D01*
X132974712Y-78836238D01*
X133026188Y-78883482D01*
X133037931Y-78909196D01*
X133077454Y-79030836D01*
X133163104Y-79198933D01*
X133163240Y-79199199D01*
X133274310Y-79352073D01*
X133407927Y-79485690D01*
X133560801Y-79596760D01*
X133640347Y-79637290D01*
X133729163Y-79682545D01*
X133729165Y-79682545D01*
X133729168Y-79682547D01*
X133825497Y-79713846D01*
X133908881Y-79740940D01*
X134095514Y-79770500D01*
X134095519Y-79770500D01*
X134284486Y-79770500D01*
X134471118Y-79740940D01*
X134472623Y-79740451D01*
X134650832Y-79682547D01*
X134819199Y-79596760D01*
X134972073Y-79485690D01*
X135105690Y-79352073D01*
X135216760Y-79199199D01*
X135302547Y-79030832D01*
X135342069Y-78909195D01*
X135381507Y-78851521D01*
X135445866Y-78824323D01*
X135514712Y-78836238D01*
X135566188Y-78883482D01*
X135577931Y-78909196D01*
X135617454Y-79030836D01*
X135703104Y-79198933D01*
X135703240Y-79199199D01*
X135814310Y-79352073D01*
X135947927Y-79485690D01*
X136100801Y-79596760D01*
X136180347Y-79637290D01*
X136269163Y-79682545D01*
X136269165Y-79682545D01*
X136269168Y-79682547D01*
X136365497Y-79713846D01*
X136448881Y-79740940D01*
X136635514Y-79770500D01*
X136635519Y-79770500D01*
X136824486Y-79770500D01*
X137011118Y-79740940D01*
X137012623Y-79740451D01*
X137190832Y-79682547D01*
X137359199Y-79596760D01*
X137512073Y-79485690D01*
X137645690Y-79352073D01*
X137756760Y-79199199D01*
X137842547Y-79030832D01*
X137882332Y-78908385D01*
X137921768Y-78850713D01*
X137986127Y-78823514D01*
X138054973Y-78835429D01*
X138106449Y-78882673D01*
X138118193Y-78908388D01*
X138157914Y-79030637D01*
X138243666Y-79198933D01*
X138262116Y-79224328D01*
X138870000Y-78616445D01*
X138870000Y-78622661D01*
X138897259Y-78724394D01*
X138949920Y-78815606D01*
X139024394Y-78890080D01*
X139115606Y-78942741D01*
X139217339Y-78970000D01*
X139223554Y-78970000D01*
X138615669Y-79577882D01*
X138615670Y-79577883D01*
X138641059Y-79596329D01*
X138809362Y-79682085D01*
X138988997Y-79740451D01*
X139175553Y-79770000D01*
X139364447Y-79770000D01*
X139551002Y-79740451D01*
X139730637Y-79682085D01*
X139898937Y-79596331D01*
X139924328Y-79577883D01*
X139924328Y-79577882D01*
X139316447Y-78970000D01*
X139322661Y-78970000D01*
X139424394Y-78942741D01*
X139515606Y-78890080D01*
X139590080Y-78815606D01*
X139642741Y-78724394D01*
X139670000Y-78622661D01*
X139670000Y-78616446D01*
X140277882Y-79224328D01*
X140277883Y-79224328D01*
X140296331Y-79198937D01*
X140382086Y-79030635D01*
X140421806Y-78908389D01*
X140461243Y-78850713D01*
X140525601Y-78823514D01*
X140594448Y-78835428D01*
X140645924Y-78882672D01*
X140657668Y-78908387D01*
X140697454Y-79030836D01*
X140783104Y-79198933D01*
X140783240Y-79199199D01*
X140894310Y-79352073D01*
X141027927Y-79485690D01*
X141180801Y-79596760D01*
X141260347Y-79637290D01*
X141349163Y-79682545D01*
X141349165Y-79682545D01*
X141349168Y-79682547D01*
X141445497Y-79713846D01*
X141528881Y-79740940D01*
X141715514Y-79770500D01*
X141715519Y-79770500D01*
X141904486Y-79770500D01*
X142091118Y-79740940D01*
X142092623Y-79740451D01*
X142270832Y-79682547D01*
X142439199Y-79596760D01*
X142592073Y-79485690D01*
X142725690Y-79352073D01*
X142836760Y-79199199D01*
X142922547Y-79030832D01*
X142962069Y-78909195D01*
X143001507Y-78851521D01*
X143065866Y-78824323D01*
X143134712Y-78836238D01*
X143186188Y-78883482D01*
X143197931Y-78909196D01*
X143237454Y-79030836D01*
X143323104Y-79198933D01*
X143323240Y-79199199D01*
X143434310Y-79352073D01*
X143567927Y-79485690D01*
X143720801Y-79596760D01*
X143800347Y-79637290D01*
X143889163Y-79682545D01*
X143889165Y-79682545D01*
X143889168Y-79682547D01*
X143985497Y-79713846D01*
X144068881Y-79740940D01*
X144255514Y-79770500D01*
X144255519Y-79770500D01*
X144444486Y-79770500D01*
X144631118Y-79740940D01*
X144632623Y-79740451D01*
X144810832Y-79682547D01*
X144979199Y-79596760D01*
X145132073Y-79485690D01*
X145265690Y-79352073D01*
X145376760Y-79199199D01*
X145462547Y-79030832D01*
X145502069Y-78909195D01*
X145541507Y-78851521D01*
X145605866Y-78824323D01*
X145674712Y-78836238D01*
X145726188Y-78883482D01*
X145737931Y-78909196D01*
X145777454Y-79030836D01*
X145863104Y-79198933D01*
X145863240Y-79199199D01*
X145974310Y-79352073D01*
X146107927Y-79485690D01*
X146260801Y-79596760D01*
X146340347Y-79637290D01*
X146429163Y-79682545D01*
X146429165Y-79682545D01*
X146429168Y-79682547D01*
X146525497Y-79713846D01*
X146608881Y-79740940D01*
X146795514Y-79770500D01*
X146795519Y-79770500D01*
X146984486Y-79770500D01*
X147171118Y-79740940D01*
X147172623Y-79740451D01*
X147350832Y-79682547D01*
X147519199Y-79596760D01*
X147672073Y-79485690D01*
X147805690Y-79352073D01*
X147916760Y-79199199D01*
X148002547Y-79030832D01*
X148060940Y-78851118D01*
X148065312Y-78823514D01*
X148090500Y-78664486D01*
X148090500Y-78475513D01*
X148060940Y-78288881D01*
X148031170Y-78197259D01*
X148002547Y-78109168D01*
X148002545Y-78109165D01*
X148002545Y-78109163D01*
X147946239Y-77998657D01*
X147916760Y-77940801D01*
X147805690Y-77787927D01*
X147672073Y-77654310D01*
X147519199Y-77543240D01*
X147350836Y-77457454D01*
X147276472Y-77433291D01*
X147229195Y-77417930D01*
X147171521Y-77378493D01*
X147144323Y-77314134D01*
X147156238Y-77245288D01*
X147203482Y-77193812D01*
X147229194Y-77182069D01*
X147350832Y-77142547D01*
X147519199Y-77056760D01*
X147672073Y-76945690D01*
X147805690Y-76812073D01*
X147916760Y-76659199D01*
X148002547Y-76490832D01*
X148060940Y-76311118D01*
X148065312Y-76283514D01*
X148072577Y-76237648D01*
X165199500Y-76237648D01*
X165199500Y-76442351D01*
X165231522Y-76644534D01*
X165294781Y-76839223D01*
X165387715Y-77021613D01*
X165508028Y-77187213D01*
X165652786Y-77331971D01*
X165771463Y-77418193D01*
X165818390Y-77452287D01*
X165934607Y-77511503D01*
X166000776Y-77545218D01*
X166000778Y-77545218D01*
X166000781Y-77545220D01*
X166105137Y-77579127D01*
X166195465Y-77608477D01*
X166296557Y-77624488D01*
X166397648Y-77640500D01*
X166397649Y-77640500D01*
X166602351Y-77640500D01*
X166602352Y-77640500D01*
X166804534Y-77608477D01*
X166999219Y-77545220D01*
X167181610Y-77452287D01*
X167283542Y-77378230D01*
X167347213Y-77331971D01*
X167347215Y-77331968D01*
X167347219Y-77331966D01*
X167491966Y-77187219D01*
X167491968Y-77187215D01*
X167491971Y-77187213D01*
X167544732Y-77114590D01*
X167612287Y-77021610D01*
X167705220Y-76839219D01*
X167768477Y-76644534D01*
X167800500Y-76442352D01*
X167800500Y-76237648D01*
X167782576Y-76124481D01*
X167768477Y-76035465D01*
X167716535Y-75875606D01*
X167705220Y-75840781D01*
X167705218Y-75840778D01*
X167705218Y-75840776D01*
X167658601Y-75749287D01*
X167612287Y-75658390D01*
X167591661Y-75630000D01*
X167491971Y-75492786D01*
X167347213Y-75348028D01*
X167181613Y-75227715D01*
X167181612Y-75227714D01*
X167181610Y-75227713D01*
X167124653Y-75198691D01*
X166999223Y-75134781D01*
X166804534Y-75071522D01*
X166629995Y-75043878D01*
X166602352Y-75039500D01*
X166397648Y-75039500D01*
X166373329Y-75043351D01*
X166195465Y-75071522D01*
X166000776Y-75134781D01*
X165818386Y-75227715D01*
X165652786Y-75348028D01*
X165508028Y-75492786D01*
X165387715Y-75658386D01*
X165294781Y-75840776D01*
X165231522Y-76035465D01*
X165199500Y-76237648D01*
X148072577Y-76237648D01*
X148076421Y-76213378D01*
X148090500Y-76124486D01*
X148090500Y-75935513D01*
X148060940Y-75748881D01*
X148031170Y-75657259D01*
X148002547Y-75569168D01*
X148002545Y-75569165D01*
X148002545Y-75569163D01*
X147949580Y-75465214D01*
X147916760Y-75400801D01*
X147805690Y-75247927D01*
X147672073Y-75114310D01*
X147519199Y-75003240D01*
X147515099Y-75001151D01*
X147350836Y-74917454D01*
X147171118Y-74859059D01*
X146984486Y-74829500D01*
X146984481Y-74829500D01*
X146795519Y-74829500D01*
X146795514Y-74829500D01*
X146608881Y-74859059D01*
X146429163Y-74917454D01*
X146260800Y-75003240D01*
X146174387Y-75066024D01*
X146107927Y-75114310D01*
X146107925Y-75114312D01*
X146107924Y-75114312D01*
X145974312Y-75247924D01*
X145974312Y-75247925D01*
X145974310Y-75247927D01*
X145944774Y-75288580D01*
X145863240Y-75400800D01*
X145777454Y-75569163D01*
X145737931Y-75690803D01*
X145698493Y-75748478D01*
X145634134Y-75775676D01*
X145565288Y-75763761D01*
X145513812Y-75716516D01*
X145502069Y-75690803D01*
X145491170Y-75657259D01*
X145462547Y-75569168D01*
X145462545Y-75569165D01*
X145462545Y-75569163D01*
X145409580Y-75465214D01*
X145376760Y-75400801D01*
X145265690Y-75247927D01*
X145132073Y-75114310D01*
X144979199Y-75003240D01*
X144975099Y-75001151D01*
X144810836Y-74917454D01*
X144631118Y-74859059D01*
X144444486Y-74829500D01*
X144444481Y-74829500D01*
X144255519Y-74829500D01*
X144255514Y-74829500D01*
X144068881Y-74859059D01*
X143889163Y-74917454D01*
X143720800Y-75003240D01*
X143634387Y-75066024D01*
X143567927Y-75114310D01*
X143567925Y-75114312D01*
X143567924Y-75114312D01*
X143434312Y-75247924D01*
X143434312Y-75247925D01*
X143434310Y-75247927D01*
X143404774Y-75288580D01*
X143323240Y-75400800D01*
X143237454Y-75569163D01*
X143197931Y-75690803D01*
X143158493Y-75748478D01*
X143094134Y-75775676D01*
X143025288Y-75763761D01*
X142973812Y-75716516D01*
X142962069Y-75690803D01*
X142951170Y-75657259D01*
X142922547Y-75569168D01*
X142922545Y-75569165D01*
X142922545Y-75569163D01*
X142869580Y-75465214D01*
X142836760Y-75400801D01*
X142725690Y-75247927D01*
X142592073Y-75114310D01*
X142439199Y-75003240D01*
X142435099Y-75001151D01*
X142270836Y-74917454D01*
X142091118Y-74859059D01*
X141904486Y-74829500D01*
X141904481Y-74829500D01*
X141715519Y-74829500D01*
X141715514Y-74829500D01*
X141528881Y-74859059D01*
X141349163Y-74917454D01*
X141180800Y-75003240D01*
X141094387Y-75066024D01*
X141027927Y-75114310D01*
X141027925Y-75114312D01*
X141027924Y-75114312D01*
X140894312Y-75247924D01*
X140894312Y-75247925D01*
X140894310Y-75247927D01*
X140864774Y-75288580D01*
X140783240Y-75400800D01*
X140697454Y-75569163D01*
X140657931Y-75690803D01*
X140618493Y-75748478D01*
X140554134Y-75775676D01*
X140485288Y-75763761D01*
X140433812Y-75716516D01*
X140422069Y-75690803D01*
X140411170Y-75657259D01*
X140382547Y-75569168D01*
X140382545Y-75569165D01*
X140382545Y-75569163D01*
X140329580Y-75465214D01*
X140296760Y-75400801D01*
X140185690Y-75247927D01*
X140052073Y-75114310D01*
X139899199Y-75003240D01*
X139895099Y-75001151D01*
X139730836Y-74917454D01*
X139551118Y-74859059D01*
X139364486Y-74829500D01*
X139364481Y-74829500D01*
X139175519Y-74829500D01*
X139175514Y-74829500D01*
X138988881Y-74859059D01*
X138809163Y-74917454D01*
X138640800Y-75003240D01*
X138554387Y-75066024D01*
X138487927Y-75114310D01*
X138487925Y-75114312D01*
X138487924Y-75114312D01*
X138354312Y-75247924D01*
X138354312Y-75247925D01*
X138354310Y-75247927D01*
X138324774Y-75288580D01*
X138243240Y-75400800D01*
X138157454Y-75569163D01*
X138117931Y-75690803D01*
X138078493Y-75748478D01*
X138014134Y-75775676D01*
X137945288Y-75763761D01*
X137893812Y-75716516D01*
X137882069Y-75690803D01*
X137871170Y-75657259D01*
X137842547Y-75569168D01*
X137842545Y-75569165D01*
X137842545Y-75569163D01*
X137789580Y-75465214D01*
X137756760Y-75400801D01*
X137645690Y-75247927D01*
X137512073Y-75114310D01*
X137359199Y-75003240D01*
X137355099Y-75001151D01*
X137190836Y-74917454D01*
X137011118Y-74859059D01*
X136824486Y-74829500D01*
X136824481Y-74829500D01*
X136635519Y-74829500D01*
X136635514Y-74829500D01*
X136448881Y-74859059D01*
X136269163Y-74917454D01*
X136100800Y-75003240D01*
X136014387Y-75066024D01*
X135947927Y-75114310D01*
X135947925Y-75114312D01*
X135947924Y-75114312D01*
X135814312Y-75247924D01*
X135814312Y-75247925D01*
X135814310Y-75247927D01*
X135784774Y-75288580D01*
X135703240Y-75400800D01*
X135617454Y-75569163D01*
X135577931Y-75690803D01*
X135538493Y-75748478D01*
X135474134Y-75775676D01*
X135405288Y-75763761D01*
X135353812Y-75716516D01*
X135342069Y-75690803D01*
X135331170Y-75657259D01*
X135302547Y-75569168D01*
X135302545Y-75569165D01*
X135302545Y-75569163D01*
X135249580Y-75465214D01*
X135216760Y-75400801D01*
X135105690Y-75247927D01*
X134972073Y-75114310D01*
X134819199Y-75003240D01*
X134815099Y-75001151D01*
X134650836Y-74917454D01*
X134471118Y-74859059D01*
X134284486Y-74829500D01*
X134284481Y-74829500D01*
X134095519Y-74829500D01*
X134095514Y-74829500D01*
X133908881Y-74859059D01*
X133729163Y-74917454D01*
X133560800Y-75003240D01*
X133474387Y-75066024D01*
X133407927Y-75114310D01*
X133407925Y-75114312D01*
X133407924Y-75114312D01*
X133274312Y-75247924D01*
X133274312Y-75247925D01*
X133274310Y-75247927D01*
X133244774Y-75288580D01*
X133163240Y-75400800D01*
X133077454Y-75569163D01*
X133037931Y-75690803D01*
X132998493Y-75748478D01*
X132934134Y-75775676D01*
X132865288Y-75763761D01*
X132813812Y-75716516D01*
X132802069Y-75690803D01*
X132791170Y-75657259D01*
X132762547Y-75569168D01*
X132762545Y-75569165D01*
X132762545Y-75569163D01*
X132709580Y-75465214D01*
X132676760Y-75400801D01*
X132565690Y-75247927D01*
X132432073Y-75114310D01*
X132279199Y-75003240D01*
X132275099Y-75001151D01*
X132110836Y-74917454D01*
X131931118Y-74859059D01*
X131744486Y-74829500D01*
X131744481Y-74829500D01*
X131555519Y-74829500D01*
X131555514Y-74829500D01*
X131368881Y-74859059D01*
X131189163Y-74917454D01*
X131020800Y-75003240D01*
X130934387Y-75066024D01*
X130867927Y-75114310D01*
X130867925Y-75114312D01*
X130867924Y-75114312D01*
X130734312Y-75247924D01*
X130734312Y-75247925D01*
X130734310Y-75247927D01*
X130704774Y-75288580D01*
X130623240Y-75400800D01*
X130537454Y-75569163D01*
X130497931Y-75690803D01*
X130458493Y-75748478D01*
X130394134Y-75775676D01*
X130325288Y-75763761D01*
X130273812Y-75716516D01*
X130262069Y-75690803D01*
X130251170Y-75657259D01*
X130222547Y-75569168D01*
X130222545Y-75569165D01*
X130222545Y-75569163D01*
X130169580Y-75465214D01*
X130136760Y-75400801D01*
X130025690Y-75247927D01*
X129892073Y-75114310D01*
X129739199Y-75003240D01*
X129735099Y-75001151D01*
X129570836Y-74917454D01*
X129391118Y-74859059D01*
X129204486Y-74829500D01*
X129204481Y-74829500D01*
X129015519Y-74829500D01*
X129015514Y-74829500D01*
X128828881Y-74859059D01*
X128649163Y-74917454D01*
X128480800Y-75003240D01*
X128394387Y-75066024D01*
X128327927Y-75114310D01*
X128327925Y-75114312D01*
X128327924Y-75114312D01*
X128194312Y-75247924D01*
X128194312Y-75247925D01*
X128194310Y-75247927D01*
X128164774Y-75288580D01*
X128083240Y-75400800D01*
X127997454Y-75569163D01*
X127957931Y-75690803D01*
X127918493Y-75748478D01*
X127854134Y-75775676D01*
X127785288Y-75763761D01*
X127733812Y-75716516D01*
X127722069Y-75690803D01*
X127711170Y-75657259D01*
X127682547Y-75569168D01*
X127682545Y-75569165D01*
X127682545Y-75569163D01*
X127629580Y-75465214D01*
X127596760Y-75400801D01*
X127485690Y-75247927D01*
X127352073Y-75114310D01*
X127199199Y-75003240D01*
X127195099Y-75001151D01*
X127030836Y-74917454D01*
X126851118Y-74859059D01*
X126664486Y-74829500D01*
X126664481Y-74829500D01*
X126475519Y-74829500D01*
X126475514Y-74829500D01*
X126288881Y-74859059D01*
X126109163Y-74917454D01*
X125940800Y-75003240D01*
X125854387Y-75066024D01*
X125787927Y-75114310D01*
X125787925Y-75114312D01*
X125787924Y-75114312D01*
X125654312Y-75247924D01*
X125654312Y-75247925D01*
X125654310Y-75247927D01*
X125624774Y-75288580D01*
X125543240Y-75400800D01*
X125457454Y-75569163D01*
X125417668Y-75691612D01*
X125378230Y-75749287D01*
X125313871Y-75776485D01*
X125245025Y-75764570D01*
X125193549Y-75717325D01*
X125181806Y-75691611D01*
X125142085Y-75569362D01*
X125056329Y-75401059D01*
X125037883Y-75375670D01*
X125037882Y-75375669D01*
X124430000Y-75983552D01*
X124430000Y-75977339D01*
X124402741Y-75875606D01*
X124350080Y-75784394D01*
X124275606Y-75709920D01*
X124184394Y-75657259D01*
X124082661Y-75630000D01*
X124076447Y-75630000D01*
X124684328Y-75022116D01*
X124658933Y-75003666D01*
X124490637Y-74917914D01*
X124311002Y-74859548D01*
X124124447Y-74830000D01*
X123935553Y-74830000D01*
X123748997Y-74859548D01*
X123569362Y-74917914D01*
X123401060Y-75003669D01*
X123375670Y-75022116D01*
X123375669Y-75022116D01*
X123983554Y-75630000D01*
X123977339Y-75630000D01*
X123875606Y-75657259D01*
X123784394Y-75709920D01*
X123709920Y-75784394D01*
X123657259Y-75875606D01*
X123630000Y-75977339D01*
X123630000Y-75983553D01*
X123022116Y-75375669D01*
X123022116Y-75375670D01*
X123003669Y-75401060D01*
X122917914Y-75569362D01*
X122859548Y-75748997D01*
X122830000Y-75935552D01*
X122830000Y-76124447D01*
X122859548Y-76311002D01*
X122917914Y-76490637D01*
X123003666Y-76658933D01*
X123022116Y-76684328D01*
X123630000Y-76076445D01*
X123630000Y-76082661D01*
X123657259Y-76184394D01*
X123709920Y-76275606D01*
X123784394Y-76350080D01*
X123875606Y-76402741D01*
X123977339Y-76430000D01*
X123983554Y-76430000D01*
X123375669Y-77037882D01*
X123375670Y-77037883D01*
X123401059Y-77056329D01*
X123569362Y-77142085D01*
X123691611Y-77181806D01*
X123749286Y-77221243D01*
X123776485Y-77285602D01*
X123764571Y-77354448D01*
X123717327Y-77405924D01*
X123691612Y-77417668D01*
X123569163Y-77457454D01*
X123400800Y-77543240D01*
X123313579Y-77606610D01*
X123247927Y-77654310D01*
X123247925Y-77654312D01*
X123247924Y-77654312D01*
X123114312Y-77787924D01*
X123114312Y-77787925D01*
X123114310Y-77787927D01*
X123081411Y-77833209D01*
X123003240Y-77940800D01*
X122917454Y-78109163D01*
X122859059Y-78288881D01*
X122829500Y-78475513D01*
X82621319Y-78475513D01*
X82502179Y-78257325D01*
X82454649Y-78170280D01*
X82164995Y-77719568D01*
X82164992Y-77719563D01*
X81843931Y-77290675D01*
X81610784Y-77021610D01*
X81493075Y-76885766D01*
X81493065Y-76885756D01*
X81493053Y-76885743D01*
X81114256Y-76506946D01*
X81114243Y-76506934D01*
X81114234Y-76506925D01*
X80954355Y-76368389D01*
X80709324Y-76156068D01*
X80335341Y-75876109D01*
X80335328Y-75876100D01*
X80334668Y-75875606D01*
X80280432Y-75835005D01*
X80280427Y-75835001D01*
X80194815Y-75779982D01*
X96399500Y-75779982D01*
X96399500Y-77580017D01*
X96410000Y-77682796D01*
X96422185Y-77719568D01*
X96465186Y-77849335D01*
X96557288Y-77998656D01*
X96681344Y-78122712D01*
X96830665Y-78214814D01*
X96997202Y-78269999D01*
X97099990Y-78280500D01*
X97099995Y-78280500D01*
X98900005Y-78280500D01*
X98900010Y-78280500D01*
X99002798Y-78269999D01*
X99169335Y-78214814D01*
X99318656Y-78122712D01*
X99442712Y-77998656D01*
X99534814Y-77849335D01*
X99589999Y-77682798D01*
X99600500Y-77580010D01*
X99600500Y-76737682D01*
X108200000Y-76737682D01*
X108200000Y-76942317D01*
X108232008Y-77144408D01*
X108232009Y-77144417D01*
X108295244Y-77339031D01*
X108388141Y-77521350D01*
X108388147Y-77521359D01*
X108420523Y-77565921D01*
X108420524Y-77565922D01*
X109100000Y-76886446D01*
X109100000Y-76892661D01*
X109127259Y-76994394D01*
X109179920Y-77085606D01*
X109254394Y-77160080D01*
X109345606Y-77212741D01*
X109447339Y-77240000D01*
X109453553Y-77240000D01*
X108774076Y-77919474D01*
X108818650Y-77951859D01*
X109000968Y-78044755D01*
X109195582Y-78107990D01*
X109397683Y-78140000D01*
X109602317Y-78140000D01*
X109804417Y-78107990D01*
X109999031Y-78044755D01*
X110181349Y-77951859D01*
X110225921Y-77919474D01*
X109546447Y-77240000D01*
X109552661Y-77240000D01*
X109654394Y-77212741D01*
X109745606Y-77160080D01*
X109820080Y-77085606D01*
X109872741Y-76994394D01*
X109900000Y-76892661D01*
X109900000Y-76886447D01*
X110579474Y-77565921D01*
X110611859Y-77521349D01*
X110704755Y-77339031D01*
X110767990Y-77144417D01*
X110767992Y-77144408D01*
X110800000Y-76942317D01*
X110800000Y-76737682D01*
X110767990Y-76535582D01*
X110704755Y-76340968D01*
X110611859Y-76158650D01*
X110579474Y-76114077D01*
X110579474Y-76114076D01*
X109900000Y-76793551D01*
X109900000Y-76787339D01*
X109872741Y-76685606D01*
X109820080Y-76594394D01*
X109745606Y-76519920D01*
X109654394Y-76467259D01*
X109552661Y-76440000D01*
X109546446Y-76440000D01*
X110143442Y-75843005D01*
X110225922Y-75760524D01*
X110225921Y-75760523D01*
X110181359Y-75728147D01*
X110181350Y-75728141D01*
X109999031Y-75635244D01*
X109804417Y-75572009D01*
X109602317Y-75540000D01*
X109397683Y-75540000D01*
X109195582Y-75572009D01*
X109000968Y-75635244D01*
X108818644Y-75728143D01*
X108774077Y-75760523D01*
X108774077Y-75760524D01*
X109453554Y-76440000D01*
X109447339Y-76440000D01*
X109345606Y-76467259D01*
X109254394Y-76519920D01*
X109179920Y-76594394D01*
X109127259Y-76685606D01*
X109100000Y-76787339D01*
X109100000Y-76793553D01*
X108420524Y-76114077D01*
X108420523Y-76114077D01*
X108388143Y-76158644D01*
X108295244Y-76340968D01*
X108232009Y-76535582D01*
X108200000Y-76737682D01*
X99600500Y-76737682D01*
X99600500Y-75779990D01*
X99589999Y-75677202D01*
X99534814Y-75510665D01*
X99442712Y-75361344D01*
X99318656Y-75237288D01*
X99169335Y-75145186D01*
X99002798Y-75090001D01*
X99002796Y-75090000D01*
X98900017Y-75079500D01*
X98900010Y-75079500D01*
X97099990Y-75079500D01*
X97099982Y-75079500D01*
X96997203Y-75090000D01*
X96997202Y-75090001D01*
X96914669Y-75117349D01*
X96830667Y-75145185D01*
X96830662Y-75145187D01*
X96681342Y-75237289D01*
X96557289Y-75361342D01*
X96465187Y-75510662D01*
X96465185Y-75510667D01*
X96437349Y-75594669D01*
X96410001Y-75677202D01*
X96410001Y-75677203D01*
X96410000Y-75677203D01*
X96399500Y-75779982D01*
X80194815Y-75779982D01*
X79954257Y-75625386D01*
X79829720Y-75545351D01*
X79829713Y-75545347D01*
X79359488Y-75288584D01*
X79359481Y-75288580D01*
X78872160Y-75066029D01*
X78801033Y-75039500D01*
X78370165Y-74878794D01*
X78370162Y-74878793D01*
X77909320Y-74743477D01*
X77850542Y-74705703D01*
X77821517Y-74642147D01*
X77831461Y-74572988D01*
X77877216Y-74520184D01*
X77944255Y-74500500D01*
X116494468Y-74500500D01*
X116554837Y-74501832D01*
X116560286Y-74500500D01*
X116565892Y-74500500D01*
X116622938Y-74485213D01*
X116625463Y-74484566D01*
X116682853Y-74470539D01*
X116682859Y-74470535D01*
X116687965Y-74468552D01*
X116688093Y-74468501D01*
X116688118Y-74468490D01*
X116693176Y-74466394D01*
X116693186Y-74466392D01*
X116745471Y-74436204D01*
X116798407Y-74407180D01*
X116802458Y-74403303D01*
X116807314Y-74400500D01*
X116849061Y-74358751D01*
X116850926Y-74356926D01*
X116893625Y-74316072D01*
X116893627Y-74316067D01*
X116897055Y-74311799D01*
X116897149Y-74311681D01*
X116897165Y-74311658D01*
X116900490Y-74307323D01*
X116900500Y-74307314D01*
X116930038Y-74256150D01*
X116931333Y-74253962D01*
X118969095Y-70897648D01*
X145199500Y-70897648D01*
X145199500Y-71102351D01*
X145231522Y-71304534D01*
X145294781Y-71499223D01*
X145358691Y-71624653D01*
X145387585Y-71681359D01*
X145387715Y-71681613D01*
X145508028Y-71847213D01*
X145652786Y-71991971D01*
X145773226Y-72079474D01*
X145818390Y-72112287D01*
X145934607Y-72171503D01*
X146000776Y-72205218D01*
X146000778Y-72205218D01*
X146000781Y-72205220D01*
X146105137Y-72239127D01*
X146195465Y-72268477D01*
X146296557Y-72284488D01*
X146397648Y-72300500D01*
X146397649Y-72300500D01*
X146602351Y-72300500D01*
X146602352Y-72300500D01*
X146804534Y-72268477D01*
X146999219Y-72205220D01*
X147181610Y-72112287D01*
X147274590Y-72044732D01*
X147347213Y-71991971D01*
X147347215Y-71991968D01*
X147347219Y-71991966D01*
X147491966Y-71847219D01*
X147491968Y-71847215D01*
X147491971Y-71847213D01*
X147544732Y-71774590D01*
X147612287Y-71681610D01*
X147705220Y-71499219D01*
X147768477Y-71304534D01*
X147800500Y-71102352D01*
X147800500Y-70897682D01*
X150200000Y-70897682D01*
X150200000Y-71102317D01*
X150232009Y-71304417D01*
X150295244Y-71499031D01*
X150388141Y-71681350D01*
X150388147Y-71681359D01*
X150420523Y-71725921D01*
X150420524Y-71725922D01*
X151100000Y-71046446D01*
X151100000Y-71052661D01*
X151127259Y-71154394D01*
X151179920Y-71245606D01*
X151254394Y-71320080D01*
X151345606Y-71372741D01*
X151447339Y-71400000D01*
X151453553Y-71400000D01*
X150774076Y-72079474D01*
X150818650Y-72111859D01*
X151000968Y-72204755D01*
X151195582Y-72267990D01*
X151397683Y-72300000D01*
X151602317Y-72300000D01*
X151804417Y-72267990D01*
X151999031Y-72204755D01*
X152181349Y-72111859D01*
X152225921Y-72079474D01*
X151546447Y-71400000D01*
X151552661Y-71400000D01*
X151654394Y-71372741D01*
X151745606Y-71320080D01*
X151820080Y-71245606D01*
X151872741Y-71154394D01*
X151900000Y-71052661D01*
X151900000Y-71046448D01*
X152579474Y-71725922D01*
X152579474Y-71725921D01*
X152611859Y-71681349D01*
X152704755Y-71499031D01*
X152767990Y-71304417D01*
X152800000Y-71102317D01*
X152800000Y-70897682D01*
X152767990Y-70695582D01*
X152704755Y-70500968D01*
X152611859Y-70318650D01*
X152579474Y-70274077D01*
X152579474Y-70274076D01*
X151900000Y-70953551D01*
X151900000Y-70947339D01*
X151872741Y-70845606D01*
X151820080Y-70754394D01*
X151745606Y-70679920D01*
X151654394Y-70627259D01*
X151552661Y-70600000D01*
X151546446Y-70600000D01*
X152225922Y-69920524D01*
X152225921Y-69920523D01*
X152181359Y-69888147D01*
X152181350Y-69888141D01*
X151999031Y-69795244D01*
X151804417Y-69732009D01*
X151602317Y-69700000D01*
X151397683Y-69700000D01*
X151195582Y-69732009D01*
X151000968Y-69795244D01*
X150818644Y-69888143D01*
X150774077Y-69920523D01*
X150774077Y-69920524D01*
X151453554Y-70600000D01*
X151447339Y-70600000D01*
X151345606Y-70627259D01*
X151254394Y-70679920D01*
X151179920Y-70754394D01*
X151127259Y-70845606D01*
X151100000Y-70947339D01*
X151100000Y-70953553D01*
X150420524Y-70274077D01*
X150420523Y-70274077D01*
X150388143Y-70318644D01*
X150295244Y-70500968D01*
X150232009Y-70695582D01*
X150200000Y-70897682D01*
X147800500Y-70897682D01*
X147800500Y-70897648D01*
X147789536Y-70828423D01*
X147768477Y-70695465D01*
X147737458Y-70600000D01*
X147705220Y-70500781D01*
X147705218Y-70500778D01*
X147705218Y-70500776D01*
X147612419Y-70318650D01*
X147612287Y-70318390D01*
X147580092Y-70274077D01*
X147491971Y-70152786D01*
X147347213Y-70008028D01*
X147181613Y-69887715D01*
X147181612Y-69887714D01*
X147181610Y-69887713D01*
X147107594Y-69850000D01*
X146999223Y-69794781D01*
X146804534Y-69731522D01*
X146629995Y-69703878D01*
X146602352Y-69699500D01*
X146397648Y-69699500D01*
X146373329Y-69703351D01*
X146195465Y-69731522D01*
X146000776Y-69794781D01*
X145818386Y-69887715D01*
X145652786Y-70008028D01*
X145508028Y-70152786D01*
X145387715Y-70318386D01*
X145294781Y-70500776D01*
X145231522Y-70695465D01*
X145199500Y-70897648D01*
X118969095Y-70897648D01*
X120486932Y-68397682D01*
X129200000Y-68397682D01*
X129200000Y-68602317D01*
X129232009Y-68804417D01*
X129295244Y-68999031D01*
X129388141Y-69181350D01*
X129388147Y-69181359D01*
X129420523Y-69225921D01*
X129420524Y-69225922D01*
X130100000Y-68546446D01*
X130100000Y-68552661D01*
X130127259Y-68654394D01*
X130179920Y-68745606D01*
X130254394Y-68820080D01*
X130345606Y-68872741D01*
X130447339Y-68900000D01*
X130453553Y-68900000D01*
X129774076Y-69579474D01*
X129818650Y-69611859D01*
X130000968Y-69704755D01*
X130195582Y-69767990D01*
X130397683Y-69800000D01*
X130602317Y-69800000D01*
X130804417Y-69767990D01*
X130999031Y-69704755D01*
X131181349Y-69611859D01*
X131225922Y-69579474D01*
X130546447Y-68900000D01*
X130552661Y-68900000D01*
X130654394Y-68872741D01*
X130745606Y-68820080D01*
X130820080Y-68745606D01*
X130872741Y-68654394D01*
X130900000Y-68552661D01*
X130900000Y-68546448D01*
X131579474Y-69225922D01*
X131579474Y-69225921D01*
X131611859Y-69181349D01*
X131704755Y-68999031D01*
X131767990Y-68804417D01*
X131800000Y-68602317D01*
X131800000Y-68397682D01*
X131767990Y-68195582D01*
X131704755Y-68000968D01*
X131611859Y-67818650D01*
X131579474Y-67774077D01*
X131579474Y-67774076D01*
X130900000Y-68453551D01*
X130900000Y-68447339D01*
X130872741Y-68345606D01*
X130820080Y-68254394D01*
X130745606Y-68179920D01*
X130654394Y-68127259D01*
X130552661Y-68100000D01*
X130546446Y-68100000D01*
X131225922Y-67420524D01*
X131225921Y-67420523D01*
X131181359Y-67388147D01*
X131181350Y-67388141D01*
X130999031Y-67295244D01*
X130804417Y-67232009D01*
X130602317Y-67200000D01*
X130397683Y-67200000D01*
X130195582Y-67232009D01*
X130000968Y-67295244D01*
X129818644Y-67388143D01*
X129774077Y-67420523D01*
X129774077Y-67420524D01*
X130453554Y-68100000D01*
X130447339Y-68100000D01*
X130345606Y-68127259D01*
X130254394Y-68179920D01*
X130179920Y-68254394D01*
X130127259Y-68345606D01*
X130100000Y-68447339D01*
X130100000Y-68453553D01*
X129420524Y-67774077D01*
X129420523Y-67774077D01*
X129388143Y-67818644D01*
X129295244Y-68000968D01*
X129232009Y-68195582D01*
X129200000Y-68397682D01*
X120486932Y-68397682D01*
X122914107Y-64399983D01*
X129199500Y-64399983D01*
X129199500Y-65600001D01*
X129199501Y-65600018D01*
X129210000Y-65702796D01*
X129210001Y-65702799D01*
X129265185Y-65869331D01*
X129265186Y-65869334D01*
X129357288Y-66018656D01*
X129481344Y-66142712D01*
X129630666Y-66234814D01*
X129797203Y-66289999D01*
X129899991Y-66300500D01*
X131100008Y-66300499D01*
X131202797Y-66289999D01*
X131369334Y-66234814D01*
X131518656Y-66142712D01*
X131642712Y-66018656D01*
X131734814Y-65869334D01*
X131789999Y-65702797D01*
X131800500Y-65600009D01*
X131800499Y-65062135D01*
X139149500Y-65062135D01*
X139149500Y-66857870D01*
X139149501Y-66857876D01*
X139155908Y-66917483D01*
X139206202Y-67052328D01*
X139206206Y-67052335D01*
X139292452Y-67167544D01*
X139292455Y-67167547D01*
X139407664Y-67253793D01*
X139407671Y-67253797D01*
X139452618Y-67270561D01*
X139542517Y-67304091D01*
X139602127Y-67310500D01*
X139612685Y-67310499D01*
X139679723Y-67330179D01*
X139700372Y-67346818D01*
X140370591Y-68017037D01*
X140307007Y-68034075D01*
X140192993Y-68099901D01*
X140099901Y-68192993D01*
X140034075Y-68307007D01*
X140017037Y-68370591D01*
X139384728Y-67738282D01*
X139384727Y-67738282D01*
X139345380Y-67792439D01*
X139248904Y-67981782D01*
X139183242Y-68183869D01*
X139183242Y-68183872D01*
X139150000Y-68393753D01*
X139150000Y-68606246D01*
X139183242Y-68816127D01*
X139183242Y-68816130D01*
X139248904Y-69018217D01*
X139345375Y-69207550D01*
X139384728Y-69261716D01*
X140017037Y-68629408D01*
X140034075Y-68692993D01*
X140099901Y-68807007D01*
X140192993Y-68900099D01*
X140307007Y-68965925D01*
X140370590Y-68982962D01*
X139738282Y-69615269D01*
X139738282Y-69615270D01*
X139792449Y-69654624D01*
X139981782Y-69751095D01*
X140183870Y-69816757D01*
X140393754Y-69850000D01*
X140606246Y-69850000D01*
X140816127Y-69816757D01*
X140816130Y-69816757D01*
X141018217Y-69751095D01*
X141207554Y-69654622D01*
X141261716Y-69615270D01*
X141261717Y-69615270D01*
X140629408Y-68982962D01*
X140692993Y-68965925D01*
X140807007Y-68900099D01*
X140900099Y-68807007D01*
X140965925Y-68692993D01*
X140982962Y-68629409D01*
X141615270Y-69261717D01*
X141615270Y-69261716D01*
X141654622Y-69207554D01*
X141751095Y-69018217D01*
X141816757Y-68816130D01*
X141816757Y-68816127D01*
X141850000Y-68606246D01*
X141850000Y-68393753D01*
X141816757Y-68183872D01*
X141816757Y-68183869D01*
X141751095Y-67981782D01*
X141654624Y-67792449D01*
X141615270Y-67738282D01*
X141615269Y-67738282D01*
X140982962Y-68370590D01*
X140965925Y-68307007D01*
X140900099Y-68192993D01*
X140807007Y-68099901D01*
X140692993Y-68034075D01*
X140629409Y-68017037D01*
X141299627Y-67346818D01*
X141360950Y-67313333D01*
X141387307Y-67310499D01*
X141397872Y-67310499D01*
X141457483Y-67304091D01*
X141592331Y-67253796D01*
X141707546Y-67167546D01*
X141793796Y-67052331D01*
X141844091Y-66917483D01*
X141850500Y-66857873D01*
X141850499Y-65062128D01*
X141844091Y-65002517D01*
X141793796Y-64867669D01*
X141793795Y-64867668D01*
X141793793Y-64867664D01*
X141707547Y-64752455D01*
X141707544Y-64752452D01*
X141592335Y-64666206D01*
X141592328Y-64666202D01*
X141457482Y-64615908D01*
X141457483Y-64615908D01*
X141397883Y-64609501D01*
X141397881Y-64609500D01*
X141397873Y-64609500D01*
X141397864Y-64609500D01*
X139602129Y-64609500D01*
X139602123Y-64609501D01*
X139542516Y-64615908D01*
X139407671Y-64666202D01*
X139407664Y-64666206D01*
X139292455Y-64752452D01*
X139292452Y-64752455D01*
X139206206Y-64867664D01*
X139206202Y-64867671D01*
X139155908Y-65002517D01*
X139149857Y-65058805D01*
X139149501Y-65062123D01*
X139149500Y-65062135D01*
X131800499Y-65062135D01*
X131800499Y-64867671D01*
X131800499Y-64399998D01*
X131800498Y-64399981D01*
X131789999Y-64297203D01*
X131789998Y-64297200D01*
X131734814Y-64130666D01*
X131642712Y-63981344D01*
X131518656Y-63857288D01*
X131369334Y-63765186D01*
X131202797Y-63710001D01*
X131202795Y-63710000D01*
X131100010Y-63699500D01*
X129899998Y-63699500D01*
X129899981Y-63699501D01*
X129797203Y-63710000D01*
X129797200Y-63710001D01*
X129630668Y-63765185D01*
X129630663Y-63765187D01*
X129481342Y-63857289D01*
X129357289Y-63981342D01*
X129265187Y-64130663D01*
X129265186Y-64130666D01*
X129210001Y-64297203D01*
X129210001Y-64297204D01*
X129210000Y-64297204D01*
X129199500Y-64399983D01*
X122914107Y-64399983D01*
X125245436Y-60560147D01*
X125297054Y-60513058D01*
X125351430Y-60500500D01*
X149687750Y-60500500D01*
X149754789Y-60520185D01*
G37*
%TD.AperFunction*%
%TD*%
M02*
