M48
; DRILL file KiCad 10.0.3 date 2026-07-01T15:59:06
; FORMAT={-:-/ absolute / metric / decimal}
; #@! TF.CreationDate,2026-07-01T15:59:06+02:00
; #@! TF.GenerationSoftware,Kicad,Pcbnew,10.0.3
; #@! TF.FileFunction,Plated,1,2,PTH
FMAT,2
METRIC
; #@! TA.AperFunction,Plated,PTH,ViaDrill
T1C0.300
; #@! TA.AperFunction,Plated,PTH,ComponentDrill
T2C0.800
; #@! TA.AperFunction,Plated,PTH,ComponentDrill
T3C1.000
; #@! TA.AperFunction,Plated,PTH,ComponentDrill
T4C1.100
%
G90
G05
T1
X101.0Y-114.0
X104.0Y-117.0
X121.0Y-85.68
X121.0Y-111.0
X125.0Y-88.0
X132.0Y-112.0
X132.0Y-116.0
X157.0Y-113.0
T2
X109.5Y-76.84
X109.5Y-87.0
X110.0Y-107.34
X110.0Y-117.5
X124.03Y-76.03
X124.03Y-78.57
X124.03Y-101.43
X124.03Y-103.97
X126.57Y-76.03
X126.57Y-78.57
X126.57Y-101.43
X126.57Y-103.97
X127.0Y-109.0
X129.11Y-76.03
X129.11Y-78.57
X129.11Y-101.43
X129.11Y-103.97
X130.5Y-65.0
X130.5Y-68.5
X131.65Y-76.03
X131.65Y-78.57
X131.65Y-101.43
X131.65Y-103.97
X132.0Y-109.0
X134.19Y-76.03
X134.19Y-78.57
X134.19Y-101.43
X134.19Y-103.97
X136.73Y-76.03
X136.73Y-78.57
X136.73Y-101.43
X136.73Y-103.97
X139.27Y-76.03
X139.27Y-78.57
X139.27Y-101.43
X139.27Y-103.97
X141.81Y-76.03
X141.81Y-78.57
X141.81Y-101.43
X141.81Y-103.97
X144.35Y-76.03
X144.35Y-78.57
X144.35Y-101.43
X144.35Y-103.97
X146.5Y-71.0
X146.89Y-76.03
X146.89Y-78.57
X146.89Y-101.43
X146.89Y-103.97
X149.0Y-109.0
X149.0Y-114.0
X151.5Y-71.0
X166.5Y-76.34
X166.5Y-86.5
X166.5Y-107.0
X166.5Y-117.16
T3
X122.3Y-114.0
X124.84Y-114.0
X127.38Y-114.0
X129.92Y-114.0
X132.46Y-114.0
X135.0Y-114.0
X140.5Y-65.96
X140.5Y-68.5
X140.5Y-108.42
X140.5Y-110.96
X140.5Y-113.5
X140.5Y-116.04
T4
X98.0Y-76.68
X98.0Y-86.84
X98.5Y-107.0
X98.5Y-117.16
X176.5Y-107.0
X176.5Y-117.16
X178.5Y-75.84
X178.5Y-86.0
M30
